<?xml version="1.0" encoding="UTF-8"?>
<!DOCTYPE svg PUBLIC "-//W3C//DTD SVG 1.1//EN" "http://www.w3.org/Graphics/SVG/1.1/DTD/svg11.dtd">
<svg xmlns="http://www.w3.org/2000/svg" version="1.1" width="320px" height="320px" style="shape-rendering:geometricPrecision; text-rendering:geometricPrecision; image-rendering:optimizeQuality; fill-rule:evenodd; clip-rule:evenodd" xmlns:xlink="http://www.w3.org/1999/xlink">
<g><path style="opacity:0.051" fill="#9c4aff" d="M 184.5,42.5 C 185.833,43.1667 185.833,43.1667 184.5,42.5 Z"/></g>
<g><path style="opacity:0.956" fill="#b859ff" d="M 195.5,71.5 C 193.552,73.4475 192.052,75.7808 191,78.5C 188.827,75.723 188.327,75.8897 189.5,79C 188.833,79.6667 188.167,80.3333 187.5,81C 184.367,83.8157 181.034,85.4824 177.5,86C 180.338,89.2533 179.671,90.2533 175.5,89C 176.654,89.9138 176.487,90.7471 175,91.5C 174.667,91.1667 174.333,90.8333 174,90.5C 168.659,95.2476 163.492,100.248 158.5,105.5C 157.763,107.382 156.596,108.048 155,107.5C 154.535,108.931 153.701,110.097 152.5,111C 153.34,112.666 152.84,112.833 151,111.5C 149.829,112.893 148.329,113.727 146.5,114C 146.833,114.333 147.167,114.667 147.5,115C 146.299,115.903 145.465,117.069 145,118.5C 144.586,118.043 144.086,117.709 143.5,117.5C 142.646,118.522 141.646,119.355 140.5,120C 141.654,120.914 141.487,121.747 140,122.5C 137.821,121.16 137.321,121.493 138.5,123.5C 131.363,124.172 124.03,124.505 116.5,124.5C 117.504,123.317 118.338,121.984 119,120.5C 119.333,121.167 119.667,121.833 120,122.5C 122.526,118.31 126.026,115.143 130.5,113C 130.167,112.667 129.833,112.333 129.5,112C 133.776,109.791 137.776,106.458 141.5,102C 141.167,101.667 140.833,101.333 140.5,101C 142.279,101.979 143.945,101.646 145.5,100C 143.993,99.1627 143.493,97.9961 144,96.5C 145.337,97.7649 146.837,98.2649 148.5,98C 148.043,97.586 147.709,97.086 147.5,96.5C 149.516,94.751 151.182,92.751 152.5,90.5C 153.892,91.6053 155.059,92.9386 156,94.5C 155.621,92.925 155.788,91.425 156.5,90C 155.377,88.9563 154.044,88.2896 152.5,88C 153.766,87.6905 154.933,87.1905 156,86.5C 156.739,87.5742 157.739,88.2409 159,88.5C 160.73,87.3507 162.396,87.3507 164,88.5C 165.034,85.0143 166.367,81.681 168,78.5C 168.535,80.2705 169.369,80.6039 170.5,79.5C 170.291,78.914 169.957,78.414 169.5,78C 170.984,76.4263 172.651,75.093 174.5,74C 173.944,73.6174 173.611,73.1174 173.5,72.5C 180.809,71.7516 188.142,71.4183 195.5,71.5 Z"/></g>
<g><path style="opacity:0.96" fill="#ac52ff" d="M 212.5,71.5 C 216.269,71.244 219.936,71.5773 223.5,72.5C 222.602,73.1577 221.602,73.8243 220.5,74.5C 220.694,76.0701 220.694,77.5701 220.5,79C 219.551,79.6172 218.718,79.4506 218,78.5C 216.969,80.421 215.469,80.421 213.5,78.5C 214.61,76.4345 213.944,75.6011 211.5,76C 210.54,77.4194 209.707,78.9194 209,80.5C 208.667,80.1667 208.333,79.8333 208,79.5C 204.694,82.5613 201.527,85.7279 198.5,89C 197.551,89.6172 196.718,89.4506 196,88.5C 194.357,90.9768 192.524,93.3102 190.5,95.5C 189.914,95.2907 189.414,94.9574 189,94.5C 185.718,99.3749 181.551,103.208 176.5,106C 176.833,106.333 177.167,106.667 177.5,107C 175.448,107.93 173.948,109.43 173,111.5C 172.026,109.122 171.359,109.456 171,112.5C 169.365,114.667 167.532,115.834 165.5,116C 165.833,116.333 166.167,116.667 166.5,117C 163.319,119.03 160.319,121.197 157.5,123.5C 151.167,123.5 144.833,123.5 138.5,123.5C 137.321,121.493 137.821,121.16 140,122.5C 141.487,121.747 141.654,120.914 140.5,120C 141.646,119.355 142.646,118.522 143.5,117.5C 144.086,117.709 144.586,118.043 145,118.5C 145.465,117.069 146.299,115.903 147.5,115C 147.167,114.667 146.833,114.333 146.5,114C 148.329,113.727 149.829,112.893 151,111.5C 152.84,112.833 153.34,112.666 152.5,111C 153.701,110.097 154.535,108.931 155,107.5C 156.596,108.048 157.763,107.382 158.5,105.5C 159.231,105.942 160.231,106.109 161.5,106C 160.5,106.833 159.5,107.667 158.5,108.5C 159,108.833 159.5,109.167 160,109.5C 162.216,109.923 163.882,109.923 165,109.5C 165.5,109 166,108.5 166.5,108C 165.167,107.333 164.167,106.333 163.5,105C 164.744,104.544 165.577,105.044 166,106.5C 169.111,105.049 171.944,103.215 174.5,101C 173.5,100.667 172.5,100.333 171.5,100C 176.025,99.1596 179.858,96.9929 183,93.5C 183.333,92.5 183.667,91.5 184,90.5C 184.333,90.8333 184.667,91.1667 185,91.5C 185.772,90.1509 186.939,89.3176 188.5,89C 187.022,87.8069 185.688,87.3069 184.5,87.5C 184.919,86.3279 185.585,85.3279 186.5,84.5C 188.409,85.3482 190.409,85.6816 192.5,85.5C 192.354,83.0576 193.187,82.3909 195,83.5C 197.167,82 197,80.8333 194.5,80C 196.061,79.059 197.395,77.8924 198.5,76.5C 201.753,76.8758 204.42,75.5425 206.5,72.5C 208.935,74.0521 210.935,73.7188 212.5,71.5 Z"/></g>
<g><path style="opacity:0.982" fill="#e774ff" d="M 79.5,73.5 C 87.1623,74.6836 87.3289,76.6836 80,79.5C 76.172,77.8197 75.3387,78.3197 77.5,81C 76.0283,83.996 73.8616,84.8294 71,83.5C 68.7237,85.3074 68.557,86.8074 70.5,88C 69.6753,89.6883 68.6753,89.8549 67.5,88.5C 66.8076,89.0253 66.3076,89.6919 66,90.5C 62.7383,89.159 62.2383,89.4924 64.5,91.5C 63.7261,92.7112 62.8928,92.7112 62,91.5C 60.6321,93.027 60.1321,94.527 60.5,96C 57.867,96.8939 55.7004,98.3939 54,100.5C 53.228,100.355 52.5613,100.022 52,99.5C 50.2669,101.147 48.4336,102.647 46.5,104C 47.636,105.53 48.636,106.863 49.5,108C 47.892,108.658 46.7253,108.158 46,106.5C 44.8333,108.167 43.6667,109.833 42.5,111.5C 41.8333,110.833 41.1667,110.167 40.5,109.5C 39.269,110.651 39.269,111.817 40.5,113C 36.6667,116.167 32.8333,119.333 29,122.5C 28.2747,120.842 27.108,120.342 25.5,121C 26.1667,121.333 26.8333,121.667 27.5,122C 25.8648,123.748 23.8648,124.915 21.5,125.5C 22.8549,126.675 22.6883,127.675 21,128.5C 20.6827,126.699 20.016,126.366 19,127.5C 18.5439,128.744 19.0439,129.577 20.5,130C 19.3333,131.167 18.1667,132.333 17,133.5C 16.6667,132.833 16.3333,132.167 16,131.5C 15.7547,133.663 14.7547,135.33 13,136.5C 12.3162,135.216 12.4829,134.049 13.5,133C 12.8333,132.333 12.1667,132.333 11.5,133C 10.9414,135.36 9.6081,137.693 7.5,140C 6.01836,142.674 3.68503,145.174 0.5,147.5C 0.5,146.833 0.166667,146.5 -0.5,146.5C -0.5,145.833 -0.5,145.167 -0.5,144.5C 0.833333,144.167 0.833333,143.833 -0.5,143.5C -0.5,143.167 -0.5,142.833 -0.5,142.5C 2.44162,136.731 4.77495,130.731 6.5,124.5C 6.35055,125.552 6.51722,126.552 7,127.5C 12.1296,122.494 17.1296,118.161 22,114.5C 22.6877,113.668 22.521,113.002 21.5,112.5C 20.6043,113.506 19.9377,113.506 19.5,112.5C 21.2955,111.859 22.7955,110.859 24,109.5C 25.3333,110.833 26.6667,110.833 28,109.5C 28.8271,108.338 29.6604,107.171 30.5,106C 30.1667,105.5 29.8333,105 29.5,104.5C 27.1596,104.514 24.8263,104.514 22.5,104.5C 24.1667,103.5 25.5,102.167 26.5,100.5C 27.9621,101.471 29.2954,101.138 30.5,99.5C 33.0756,100.883 32.7423,101.717 29.5,102C 30.7932,102.49 32.1266,102.657 33.5,102.5C 32.0762,96.7951 33.5762,96.1284 38,100.5C 39.6883,99.6753 39.8549,98.6753 38.5,97.5C 39.6507,96.269 40.8173,96.269 42,97.5C 42.5,97 43,96.5 43.5,96C 42.4464,94.6124 42.2797,93.1124 43,91.5C 43.6667,94.1667 44.3333,94.1667 45,91.5C 45.3333,92.1667 45.6667,92.8333 46,93.5C 47.3104,91.8678 47.8104,90.2012 47.5,88.5C 49.1017,87.45 49.935,88.1167 50,90.5C 52.2196,88.2808 54.0529,85.7808 55.5,83C 58.5471,83.3579 60.7138,81.8579 62,78.5C 62.3333,78.8333 62.6667,79.1667 63,79.5C 63.3589,76.4557 64.0255,76.1224 65,78.5C 65.4652,77.0692 66.2986,75.9025 67.5,75C 66.552,74.5172 65.552,74.3505 64.5,74.5C 66.6345,72.9666 69.1345,72.2999 72,72.5C 74.5506,72.6249 77.0506,72.9582 79.5,73.5 Z"/></g>
<g><path style="opacity:0.962" fill="#c360ff" d="M 157.5,72.5 C 162.833,72.5 168.167,72.5 173.5,72.5C 173.611,73.1174 173.944,73.6174 174.5,74C 172.651,75.093 170.984,76.4263 169.5,78C 169.957,78.414 170.291,78.914 170.5,79.5C 169.369,80.6039 168.535,80.2705 168,78.5C 166.367,81.681 165.034,85.0143 164,88.5C 162.396,87.3507 160.73,87.3507 159,88.5C 157.739,88.2409 156.739,87.5742 156,86.5C 154.933,87.1905 153.766,87.6905 152.5,88C 154.044,88.2896 155.377,88.9563 156.5,90C 155.788,91.425 155.621,92.925 156,94.5C 155.059,92.9386 153.892,91.6053 152.5,90.5C 151.182,92.751 149.516,94.751 147.5,96.5C 147.709,97.086 148.043,97.586 148.5,98C 146.837,98.2649 145.337,97.7649 144,96.5C 143.493,97.9961 143.993,99.1627 145.5,100C 143.945,101.646 142.279,101.979 140.5,101C 140.833,101.333 141.167,101.667 141.5,102C 137.776,106.458 133.776,109.791 129.5,112C 129.833,112.333 130.167,112.667 130.5,113C 126.026,115.143 122.526,118.31 120,122.5C 119.667,121.833 119.333,121.167 119,120.5C 118.338,121.984 117.504,123.317 116.5,124.5C 109.73,125.406 103.063,126.739 96.5,128.5C 96.9528,127.542 97.6195,126.708 98.5,126C 98.1667,125.667 97.8333,125.333 97.5,125C 98.8333,124.667 100.167,124.333 101.5,124C 99.6992,123.683 99.3659,123.016 100.5,122C 101.833,121.667 103.167,121.333 104.5,121C 103.833,120.667 103.167,120.333 102.5,120C 106.187,117.636 109.854,115.302 113.5,113C 112.833,112.667 112.167,112.333 111.5,112C 113.329,111.727 114.829,110.893 116,109.5C 116.333,109.833 116.667,110.167 117,110.5C 117.5,109.333 118.333,108.5 119.5,108C 116.721,107.851 116.221,107.017 118,105.5C 118.333,105.833 118.667,106.167 119,106.5C 120.702,103.298 123.202,100.965 126.5,99.5C 127.098,98.2054 127.598,96.8721 128,95.5C 128.333,95.8333 128.667,96.1667 129,96.5C 130.067,95.8095 131.234,95.3095 132.5,95C 132.167,94.6667 131.833,94.3333 131.5,94C 133.615,93.4971 135.615,92.1637 137.5,90C 136.72,88.927 136.887,87.7604 138,86.5C 138.688,91.6024 139.521,91.4358 140.5,86C 139.709,84.899 139.709,84.0656 140.5,83.5C 141.427,85.1128 142.261,86.7795 143,88.5C 142.915,83.6332 144.581,82.6332 148,85.5C 148.692,84.9747 149.192,84.3081 149.5,83.5C 148.086,82.376 146.586,81.376 145,80.5C 144.333,79.8333 144.333,79.1667 145,78.5C 147.447,81.7085 149.113,81.7085 150,78.5C 153.632,76.9578 156.132,74.9578 157.5,72.5 Z"/></g>
<g><path style="opacity:0.958" fill="#e271ff" d="M 79.5,73.5 C 85.8333,73.5 92.1667,73.5 98.5,73.5C 97.9553,75.5932 97.122,77.5932 96,79.5C 92.1851,79.6144 89.6851,81.7811 88.5,86C 86.3259,86.1809 84.4925,85.3476 83,83.5C 83.3333,84.8333 83.6667,86.1667 84,87.5C 82.9916,87.9817 81.825,88.1484 80.5,88C 81.3279,88.9147 82.3279,89.5814 83.5,90C 81.1405,90.5586 78.8072,91.8919 76.5,94C 78.2705,94.5354 78.6039,95.3687 77.5,96.5C 76.8333,96.1667 76.1667,95.8333 75.5,95.5C 75.7036,96.5294 75.2036,97.5294 74,98.5C 72.4345,97.9394 71.1011,98.6061 70,100.5C 69.6667,100.167 69.3333,99.8333 69,99.5C 68.6667,100.5 68.3333,101.5 68,102.5C 66.2287,103.304 64.7287,104.471 63.5,106C 63.8333,106.333 64.1667,106.667 64.5,107C 63.2068,107.49 61.8734,107.657 60.5,107.5C 60.741,110.999 59.9076,111.332 58,108.5C 56.5555,110.379 57.0555,112.045 59.5,113.5C 57.9564,114.622 56.623,114.289 55.5,112.5C 53.997,113.59 53.6637,114.757 54.5,116C 52.3911,117.141 50.5578,118.641 49,120.5C 48.6667,118.5 48.3333,116.5 48,114.5C 47.6667,114.833 47.3333,115.167 47,115.5C 47,116.833 47,118.167 47,119.5C 42.1684,123.595 37.5017,127.929 33,132.5C 32.51,133.793 32.3433,135.127 32.5,136.5C 30.3393,136.174 28.5059,135.174 27,133.5C 25.8869,134.711 24.7202,134.711 23.5,133.5C 23.1667,133.667 22.8333,133.833 22.5,134C 24.597,136 25.597,138.166 25.5,140.5C 24.1502,141.95 22.4835,142.617 20.5,142.5C 20.7804,145.388 19.4471,146.888 16.5,147C 16.8333,147.333 17.1667,147.667 17.5,148C 16.1667,148.333 14.8333,148.667 13.5,149C 12.3589,151.308 10.6922,153.141 8.5,154.5C 7.80762,153.975 7.30762,153.308 7,152.5C 6.1013,156.57 3.6013,158.57 -0.5,158.5C -0.5,155.833 -0.5,153.167 -0.5,150.5C 0.833333,150.167 0.833333,149.833 -0.5,149.5C -0.5,148.833 -0.5,148.167 -0.5,147.5C -0.166667,147.5 0.166667,147.5 0.5,147.5C 3.68503,145.174 6.01836,142.674 7.5,140C 9.6081,137.693 10.9414,135.36 11.5,133C 12.1667,132.333 12.8333,132.333 13.5,133C 12.4829,134.049 12.3162,135.216 13,136.5C 14.7547,135.33 15.7547,133.663 16,131.5C 16.3333,132.167 16.6667,132.833 17,133.5C 18.1667,132.333 19.3333,131.167 20.5,130C 19.0439,129.577 18.5439,128.744 19,127.5C 20.016,126.366 20.6827,126.699 21,128.5C 22.6883,127.675 22.8549,126.675 21.5,125.5C 23.8648,124.915 25.8648,123.748 27.5,122C 26.8333,121.667 26.1667,121.333 25.5,121C 27.108,120.342 28.2747,120.842 29,122.5C 32.8333,119.333 36.6667,116.167 40.5,113C 39.269,111.817 39.269,110.651 40.5,109.5C 41.1667,110.167 41.8333,110.833 42.5,111.5C 43.6667,109.833 44.8333,108.167 46,106.5C 46.7253,108.158 47.892,108.658 49.5,108C 48.636,106.863 47.636,105.53 46.5,104C 48.4336,102.647 50.2669,101.147 52,99.5C 52.5613,100.022 53.228,100.355 54,100.5C 55.7004,98.3939 57.867,96.8939 60.5,96C 60.1321,94.527 60.6321,93.027 62,91.5C 62.8928,92.7112 63.7261,92.7112 64.5,91.5C 62.2383,89.4924 62.7383,89.159 66,90.5C 66.3076,89.6919 66.8076,89.0253 67.5,88.5C 68.6753,89.8549 69.6753,89.6883 70.5,88C 68.557,86.8074 68.7237,85.3074 71,83.5C 73.8616,84.8294 76.0283,83.996 77.5,81C 75.3387,78.3197 76.172,77.8197 80,79.5C 87.3289,76.6836 87.1623,74.6836 79.5,73.5 Z"/></g>
<g><path style="opacity:0.977" fill="#dd6eff" d="M 98.5,73.5 C 99.1667,73.5 99.8333,73.5 100.5,73.5C 104.513,74.7551 108.513,75.5884 112.5,76C 111.333,77.1667 110.167,78.3333 109,79.5C 107.334,78.6598 107.167,79.1598 108.5,81C 107.747,82.487 106.914,82.6537 106,81.5C 103.603,84.4 100.77,86.7333 97.5,88.5C 95.679,89.7277 94.679,91.3944 94.5,93.5C 93.448,93.3505 92.448,93.5172 91.5,94C 88.4276,96.9506 85.2609,99.7839 82,102.5C 81.586,102.043 81.086,101.709 80.5,101.5C 79.2888,102.274 79.2888,103.107 80.5,104C 79.6721,104.915 78.6721,105.581 77.5,106C 77.8333,106.333 78.1667,106.667 78.5,107C 77.0506,108.117 75.3839,108.784 73.5,109C 74.1667,109.333 74.8333,109.667 75.5,110C 71.0503,109.423 68.5503,111.59 68,116.5C 67.3333,115.833 66.6667,115.167 66,114.5C 65.3333,115.833 64.6667,117.167 64,118.5C 63.6667,118.167 63.3333,117.833 63,117.5C 62.2276,118.849 61.0609,119.682 59.5,120C 59.9574,120.414 60.2907,120.914 60.5,121.5C 59.273,122.59 58.4396,123.924 58,125.5C 57.586,125.043 57.086,124.709 56.5,124.5C 55.7189,125.729 55.2189,127.062 55,128.5C 52.6091,127.398 52.1091,128.064 53.5,130.5C 51.6351,131.666 49.9684,131.333 48.5,129.5C 46.1628,133.468 43.4961,136.468 40.5,138.5C 41.09,139.799 42.09,140.632 43.5,141C 37.2372,142.923 31.5706,145.256 26.5,148C 28.7092,148.957 28.5425,150.124 26,151.5C 24.927,150.72 23.7604,150.887 22.5,152C 23.3081,152.308 23.9747,152.808 24.5,153.5C 23.7261,154.711 22.8928,154.711 22,153.5C 19.9441,157.467 16.7775,160.467 12.5,162.5C 10.0663,164.921 8.06634,167.588 6.5,170.5C 3.40494,167.308 1.07161,163.641 -0.5,159.5C -0.5,159.167 -0.5,158.833 -0.5,158.5C 3.6013,158.57 6.1013,156.57 7,152.5C 7.30762,153.308 7.80762,153.975 8.5,154.5C 10.6922,153.141 12.3589,151.308 13.5,149C 14.8333,148.667 16.1667,148.333 17.5,148C 17.1667,147.667 16.8333,147.333 16.5,147C 19.4471,146.888 20.7804,145.388 20.5,142.5C 22.4835,142.617 24.1502,141.95 25.5,140.5C 25.597,138.166 24.597,136 22.5,134C 22.8333,133.833 23.1667,133.667 23.5,133.5C 24.7202,134.711 25.8869,134.711 27,133.5C 28.5059,135.174 30.3393,136.174 32.5,136.5C 32.3433,135.127 32.51,133.793 33,132.5C 37.5017,127.929 42.1684,123.595 47,119.5C 47,118.167 47,116.833 47,115.5C 47.3333,115.167 47.6667,114.833 48,114.5C 48.3333,116.5 48.6667,118.5 49,120.5C 50.5578,118.641 52.3911,117.141 54.5,116C 53.6637,114.757 53.997,113.59 55.5,112.5C 56.623,114.289 57.9564,114.622 59.5,113.5C 57.0555,112.045 56.5555,110.379 58,108.5C 59.9076,111.332 60.741,110.999 60.5,107.5C 61.8734,107.657 63.2068,107.49 64.5,107C 64.1667,106.667 63.8333,106.333 63.5,106C 64.7287,104.471 66.2287,103.304 68,102.5C 68.3333,101.5 68.6667,100.5 69,99.5C 69.3333,99.8333 69.6667,100.167 70,100.5C 71.1011,98.6061 72.4345,97.9394 74,98.5C 75.2036,97.5294 75.7036,96.5294 75.5,95.5C 76.1667,95.8333 76.8333,96.1667 77.5,96.5C 78.6039,95.3687 78.2705,94.5354 76.5,94C 78.8072,91.8919 81.1405,90.5586 83.5,90C 82.3279,89.5814 81.3279,88.9147 80.5,88C 81.825,88.1484 82.9916,87.9817 84,87.5C 83.6667,86.1667 83.3333,84.8333 83,83.5C 84.4925,85.3476 86.3259,86.1809 88.5,86C 89.6851,81.7811 92.1851,79.6144 96,79.5C 97.122,77.5932 97.9553,75.5932 98.5,73.5 Z"/></g>
<g><path style="opacity:0.965" fill="#a24dff" d="M 223.5,72.5 C 226.417,72.3651 229.084,73.0318 231.5,74.5C 231.426,76.4109 230.426,77.5776 228.5,78C 229.328,78.9147 230.328,79.5814 231.5,80C 230.109,81.6501 228.609,82.1501 227,81.5C 226.667,82.1667 226.333,82.8333 226,83.5C 225.275,81.842 224.108,81.342 222.5,82C 222.833,82.3333 223.167,82.6667 223.5,83C 221.657,83.7742 219.824,85.2742 218,87.5C 217.517,88.448 217.351,89.448 217.5,90.5C 216.127,90.3433 214.793,90.51 213.5,91C 213.619,92.2812 213.119,93.4479 212,94.5C 211.667,94.1667 211.333,93.8333 211,93.5C 206.887,97.0048 203.053,100.171 199.5,103C 199.833,103.333 200.167,103.667 200.5,104C 196.123,105.273 193.457,108.106 192.5,112.5C 191.127,112.343 189.793,112.51 188.5,113C 188.833,113.333 189.167,113.667 189.5,114C 187.552,114.983 185.718,116.15 184,117.5C 183.667,117.167 183.333,116.833 183,116.5C 180.614,117.46 178.781,119.46 177.5,122.5C 170.833,122.833 164.167,123.167 157.5,123.5C 160.319,121.197 163.319,119.03 166.5,117C 166.167,116.667 165.833,116.333 165.5,116C 167.532,115.834 169.365,114.667 171,112.5C 171.359,109.456 172.026,109.122 173,111.5C 173.948,109.43 175.448,107.93 177.5,107C 177.167,106.667 176.833,106.333 176.5,106C 181.551,103.208 185.718,99.3749 189,94.5C 189.414,94.9574 189.914,95.2907 190.5,95.5C 192.524,93.3102 194.357,90.9768 196,88.5C 196.718,89.4506 197.551,89.6172 198.5,89C 201.527,85.7279 204.694,82.5613 208,79.5C 208.333,79.8333 208.667,80.1667 209,80.5C 209.707,78.9194 210.54,77.4194 211.5,76C 213.944,75.6011 214.61,76.4345 213.5,78.5C 215.469,80.421 216.969,80.421 218,78.5C 218.718,79.4506 219.551,79.6172 220.5,79C 220.694,77.5701 220.694,76.0701 220.5,74.5C 221.602,73.8243 222.602,73.1577 223.5,72.5 Z"/></g>
<g><path style="opacity:0.996" fill="#ea76ff" d="M 64.5,74.5 C 65.552,74.3505 66.552,74.5172 67.5,75C 66.2986,75.9025 65.4652,77.0692 65,78.5C 64.0255,76.1224 63.3589,76.4557 63,79.5C 62.6667,79.1667 62.3333,78.8333 62,78.5C 60.7138,81.8579 58.5471,83.3579 55.5,83C 54.0529,85.7808 52.2196,88.2808 50,90.5C 49.935,88.1167 49.1017,87.45 47.5,88.5C 47.8104,90.2012 47.3104,91.8678 46,93.5C 45.6667,92.8333 45.3333,92.1667 45,91.5C 44.3333,94.1667 43.6667,94.1667 43,91.5C 42.2797,93.1124 42.4464,94.6124 43.5,96C 43,96.5 42.5,97 42,97.5C 40.8173,96.269 39.6507,96.269 38.5,97.5C 39.8549,98.6753 39.6883,99.6753 38,100.5C 33.5762,96.1284 32.0762,96.7951 33.5,102.5C 32.1266,102.657 30.7932,102.49 29.5,102C 32.7423,101.717 33.0756,100.883 30.5,99.5C 29.2954,101.138 27.9621,101.471 26.5,100.5C 25.5,102.167 24.1667,103.5 22.5,104.5C 24.8263,104.514 27.1596,104.514 29.5,104.5C 29.8333,105 30.1667,105.5 30.5,106C 29.6604,107.171 28.8271,108.338 28,109.5C 26.6667,110.833 25.3333,110.833 24,109.5C 22.7955,110.859 21.2955,111.859 19.5,112.5C 19.9377,113.506 20.6043,113.506 21.5,112.5C 22.521,113.002 22.6877,113.668 22,114.5C 17.1296,118.161 12.1296,122.494 7,127.5C 6.51722,126.552 6.35055,125.552 6.5,124.5C 10.9974,112.832 16.1641,101.499 22,90.5C 30.4894,78.4226 42.1561,72.7559 57,73.5C 59.3998,73.3075 61.8998,73.6409 64.5,74.5 Z"/></g>
<g><path style="opacity:0.976" fill="#d76bff" d="M 123.5,73.5 C 122.167,73.8333 122.167,74.1667 123.5,74.5C 123.611,75.1174 123.944,75.6174 124.5,76C 122.833,77 121.5,78.3333 120.5,80C 118.905,79.3829 117.572,79.7163 116.5,81C 117.833,82.8402 117.666,83.3402 116,82.5C 114.893,85.492 113.226,86.1587 111,84.5C 110.383,85.4491 110.549,86.2825 111.5,87C 109.96,88.8511 108.46,90.0178 107,90.5C 106.667,90.1667 106.333,89.8333 106,89.5C 105.667,90.5 105.333,91.5 105,92.5C 101.103,96.6679 97.1025,100.001 93,102.5C 92.6667,102.167 92.3333,101.833 92,101.5C 92.6667,102.833 93.3333,104.167 94,105.5C 92.984,104.366 92.3173,104.699 92,106.5C 89.9361,105.409 87.7695,105.242 85.5,106C 86.8333,106.333 88.1667,106.667 89.5,107C 86.0215,109.15 82.8549,111.65 80,114.5C 79.6667,114.167 79.3333,113.833 79,113.5C 78.0975,114.701 76.9308,115.535 75.5,116C 76.1667,116.333 76.8333,116.667 77.5,117C 74.1691,117.794 72.3358,119.961 72,123.5C 71.6667,123.167 71.3333,122.833 71,122.5C 68.3557,124.31 65.8557,126.31 63.5,128.5C 62.914,128.291 62.414,127.957 62,127.5C 57.3913,135.602 50.5579,142.269 41.5,147.5C 42.1667,147.833 42.8333,148.167 43.5,148.5C 41.1851,149.234 39.3518,150.568 38,152.5C 36.6124,151.446 35.1124,151.28 33.5,152C 36.1667,153.333 38.8333,154.667 41.5,156C 38.9223,157.783 36.089,158.949 33,159.5C 31.8456,157.043 30.5123,157.043 29,159.5C 28.6667,159.167 28.3333,158.833 28,158.5C 23.726,161.68 19.5594,165.68 15.5,170.5C 15.2124,171.861 14.879,173.194 14.5,174.5C 13.009,174.099 11.3423,173.932 9.5,174C 7.5743,173.578 6.5743,172.411 6.5,170.5C 8.06634,167.588 10.0663,164.921 12.5,162.5C 16.7775,160.467 19.9441,157.467 22,153.5C 22.8928,154.711 23.7261,154.711 24.5,153.5C 23.9747,152.808 23.3081,152.308 22.5,152C 23.7604,150.887 24.927,150.72 26,151.5C 28.5425,150.124 28.7092,148.957 26.5,148C 31.5706,145.256 37.2372,142.923 43.5,141C 42.09,140.632 41.09,139.799 40.5,138.5C 43.4961,136.468 46.1628,133.468 48.5,129.5C 49.9684,131.333 51.6351,131.666 53.5,130.5C 52.1091,128.064 52.6091,127.398 55,128.5C 55.2189,127.062 55.7189,125.729 56.5,124.5C 57.086,124.709 57.586,125.043 58,125.5C 58.4396,123.924 59.273,122.59 60.5,121.5C 60.2907,120.914 59.9574,120.414 59.5,120C 61.0609,119.682 62.2276,118.849 63,117.5C 63.3333,117.833 63.6667,118.167 64,118.5C 64.6667,117.167 65.3333,115.833 66,114.5C 66.6667,115.167 67.3333,115.833 68,116.5C 68.5503,111.59 71.0503,109.423 75.5,110C 74.8333,109.667 74.1667,109.333 73.5,109C 75.3839,108.784 77.0506,108.117 78.5,107C 78.1667,106.667 77.8333,106.333 77.5,106C 78.6721,105.581 79.6721,104.915 80.5,104C 79.2888,103.107 79.2888,102.274 80.5,101.5C 81.086,101.709 81.586,102.043 82,102.5C 85.2609,99.7839 88.4276,96.9506 91.5,94C 92.448,93.5172 93.448,93.3505 94.5,93.5C 94.679,91.3944 95.679,89.7277 97.5,88.5C 100.77,86.7333 103.603,84.4 106,81.5C 106.914,82.6537 107.747,82.487 108.5,81C 107.167,79.1598 107.334,78.6598 109,79.5C 110.167,78.3333 111.333,77.1667 112.5,76C 108.513,75.5884 104.513,74.7551 100.5,73.5C 105.094,72.8088 109.594,72.8088 114,73.5C 116.351,70.7901 118.351,71.1235 120,74.5C 120.924,72.5049 122.09,72.1716 123.5,73.5 Z"/></g>
<g><path style="opacity:0.991" fill="#d168ff" d="M 140.5,73.5 C 140.393,75.3786 140.893,75.7119 142,74.5C 142.75,75.1258 143.584,75.6258 144.5,76C 138.438,76.7529 133.938,79.2529 131,83.5C 130.333,82.8333 129.667,82.1667 129,81.5C 127.924,85.1752 126.257,88.5086 124,91.5C 123.577,90.0439 122.744,89.5439 121.5,90C 122.576,91.7261 122.743,93.5594 122,95.5C 119.86,96.7282 118.193,98.3949 117,100.5C 116.667,99.8333 116.333,99.1667 116,98.5C 115.316,99.7839 115.483,100.951 116.5,102C 115.007,103.368 113.507,103.535 112,102.5C 111.383,103.449 111.549,104.282 112.5,105C 111.551,105.617 110.718,105.451 110,104.5C 108.913,106.752 107.079,108.085 104.5,108.5C 104.977,109.478 105.643,110.311 106.5,111C 103.137,110.139 101.303,111.639 101,115.5C 99.8525,114.542 98.8525,114.875 98,116.5C 97.6667,116.167 97.3333,115.833 97,115.5C 95.6012,116.227 94.1012,116.727 92.5,117C 91.8333,118.333 91.1667,119.667 90.5,121C 91.1667,121.333 91.8333,121.667 92.5,122C 89.2889,123.153 85.9555,123.82 82.5,124C 83.5,124.333 84.5,124.667 85.5,125C 84.1667,125.667 84.1667,126.333 85.5,127C 83.3651,128.381 81.0318,129.381 78.5,130C 79.4506,130.718 79.6172,131.551 79,132.5C 77.527,132.132 76.027,132.632 74.5,134C 74.8333,134.333 75.1667,134.667 75.5,135C 74.3279,135.419 73.3279,136.085 72.5,137C 73.3988,138.99 72.5655,140.157 70,140.5C 68.6349,140.156 67.4682,139.489 66.5,138.5C 65.8333,139.167 65.1667,139.833 64.5,140.5C 63.2322,139.572 61.8989,139.405 60.5,140C 60.6932,141.645 60.8598,143.479 61,145.5C 62.2639,145.36 63.4305,145.36 64.5,145.5C 62.8872,146.427 61.2205,147.261 59.5,148C 59.8333,148.333 60.1667,148.667 60.5,149C 58.0148,150.487 55.8482,152.321 54,154.5C 53.6121,153.572 52.9454,152.905 52,152.5C 50.5838,153.573 49.2504,153.573 48,152.5C 46.766,154.734 44.9326,156.234 42.5,157C 44.1667,158 45.8333,159 47.5,160C 43.9352,161.528 40.7685,163.694 38,166.5C 36.9505,165.483 35.7839,165.316 34.5,166C 34.7931,168.732 34.2931,171.566 33,174.5C 31.9207,176.394 30.5874,176.727 29,175.5C 27.3775,176.099 25.8775,176.766 24.5,177.5C 20.6215,177.976 17.2882,176.976 14.5,174.5C 14.879,173.194 15.2124,171.861 15.5,170.5C 19.5594,165.68 23.726,161.68 28,158.5C 28.3333,158.833 28.6667,159.167 29,159.5C 30.5123,157.043 31.8456,157.043 33,159.5C 36.089,158.949 38.9223,157.783 41.5,156C 38.8333,154.667 36.1667,153.333 33.5,152C 35.1124,151.28 36.6124,151.446 38,152.5C 39.3518,150.568 41.1851,149.234 43.5,148.5C 42.8333,148.167 42.1667,147.833 41.5,147.5C 50.5579,142.269 57.3913,135.602 62,127.5C 62.414,127.957 62.914,128.291 63.5,128.5C 65.8557,126.31 68.3557,124.31 71,122.5C 71.3333,122.833 71.6667,123.167 72,123.5C 72.3358,119.961 74.1691,117.794 77.5,117C 76.8333,116.667 76.1667,116.333 75.5,116C 76.9308,115.535 78.0975,114.701 79,113.5C 79.3333,113.833 79.6667,114.167 80,114.5C 82.8549,111.65 86.0215,109.15 89.5,107C 88.1667,106.667 86.8333,106.333 85.5,106C 87.7695,105.242 89.9361,105.409 92,106.5C 92.3173,104.699 92.984,104.366 94,105.5C 93.3333,104.167 92.6667,102.833 92,101.5C 92.3333,101.833 92.6667,102.167 93,102.5C 97.1025,100.001 101.103,96.6679 105,92.5C 105.333,91.5 105.667,90.5 106,89.5C 106.333,89.8333 106.667,90.1667 107,90.5C 108.46,90.0178 109.96,88.8511 111.5,87C 110.549,86.2825 110.383,85.4491 111,84.5C 113.226,86.1587 114.893,85.492 116,82.5C 117.666,83.3402 117.833,82.8402 116.5,81C 117.572,79.7163 118.905,79.3829 120.5,80C 121.5,78.3333 122.833,77 124.5,76C 123.944,75.6174 123.611,75.1174 123.5,74.5C 123.5,74.1667 123.5,73.8333 123.5,73.5C 129.24,72.2152 134.907,72.2152 140.5,73.5 Z"/></g>
<g><path style="opacity:0.978" fill="#9847ff" d="M 231.5,74.5 C 235.337,75.5955 239.004,76.9288 242.5,78.5C 241.829,79.8471 241.829,81.0138 242.5,82C 237.886,84.2411 234.053,87.4077 231,91.5C 230.228,91.3552 229.561,91.0219 229,90.5C 227.473,92.221 226.473,94.221 226,96.5C 224.676,97.8802 223.343,98.2135 222,97.5C 220.122,99.0429 218.622,100.876 217.5,103C 215.152,103.346 213.319,104.513 212,106.5C 211.667,106.167 211.333,105.833 211,105.5C 209.35,106.891 208.85,108.391 209.5,110C 207.754,110.471 206.087,111.138 204.5,112C 204.833,112.333 205.167,112.667 205.5,113C 201.566,114.355 198.566,116.855 196.5,120.5C 193.36,121.089 190.36,121.756 187.5,122.5C 184.167,122.5 180.833,122.5 177.5,122.5C 178.781,119.46 180.614,117.46 183,116.5C 183.333,116.833 183.667,117.167 184,117.5C 185.718,116.15 187.552,114.983 189.5,114C 189.167,113.667 188.833,113.333 188.5,113C 189.793,112.51 191.127,112.343 192.5,112.5C 193.457,108.106 196.123,105.273 200.5,104C 200.167,103.667 199.833,103.333 199.5,103C 203.053,100.171 206.887,97.0048 211,93.5C 211.333,93.8333 211.667,94.1667 212,94.5C 213.119,93.4479 213.619,92.2812 213.5,91C 214.793,90.51 216.127,90.3433 217.5,90.5C 217.351,89.448 217.517,88.448 218,87.5C 219.824,85.2742 221.657,83.7742 223.5,83C 223.167,82.6667 222.833,82.3333 222.5,82C 224.108,81.342 225.275,81.842 226,83.5C 226.333,82.8333 226.667,82.1667 227,81.5C 228.609,82.1501 230.109,81.6501 231.5,80C 230.328,79.5814 229.328,78.9147 228.5,78C 230.426,77.5776 231.426,76.4109 231.5,74.5 Z"/></g>
<g><path style="opacity:0.964" fill="#8f42ff" d="M 242.5,78.5 C 243.552,78.3505 244.552,78.5172 245.5,79C 247.054,81.2869 248.721,83.4535 250.5,85.5C 250.02,88.6514 248.354,90.9848 245.5,92.5C 248.078,92.6767 248.078,93.8433 245.5,96C 246.711,96.8928 246.711,97.7261 245.5,98.5C 244.614,97.675 244.281,96.675 244.5,95.5C 240.983,93.9238 238.65,95.0905 237.5,99C 237.833,99.3333 238.167,99.6667 238.5,100C 237.234,100.309 236.067,100.809 235,101.5C 234.667,101.167 234.333,100.833 234,100.5C 231.795,103.04 229.295,105.207 226.5,107C 227.956,107.423 228.456,108.256 228,109.5C 226.951,108.483 225.784,108.316 224.5,109C 223.167,109.667 223.167,110.333 224.5,111C 222.122,111.974 222.456,112.641 225.5,113C 221.681,114.068 218.014,115.568 214.5,117.5C 211.781,120.087 212.114,121.754 215.5,122.5C 206.333,123.498 196.999,123.498 187.5,122.5C 190.36,121.756 193.36,121.089 196.5,120.5C 198.566,116.855 201.566,114.355 205.5,113C 205.167,112.667 204.833,112.333 204.5,112C 206.087,111.138 207.754,110.471 209.5,110C 208.85,108.391 209.35,106.891 211,105.5C 211.333,105.833 211.667,106.167 212,106.5C 213.319,104.513 215.152,103.346 217.5,103C 218.622,100.876 220.122,99.0429 222,97.5C 223.343,98.2135 224.676,97.8802 226,96.5C 226.473,94.221 227.473,92.221 229,90.5C 229.561,91.0219 230.228,91.3552 231,91.5C 234.053,87.4077 237.886,84.2411 242.5,82C 241.829,81.0138 241.829,79.8471 242.5,78.5 Z"/></g>
<g><path style="opacity:0.986" fill="#863cff" d="M 250.5,85.5 C 253.829,89.1606 255.829,93.4939 256.5,98.5C 255.022,98.238 253.689,98.5713 252.5,99.5C 244.409,107.668 236.409,115.001 228.5,121.5C 224.131,121.467 219.798,121.8 215.5,122.5C 212.114,121.754 211.781,120.087 214.5,117.5C 218.014,115.568 221.681,114.068 225.5,113C 222.456,112.641 222.122,111.974 224.5,111C 223.167,110.333 223.167,109.667 224.5,109C 225.784,108.316 226.951,108.483 228,109.5C 228.456,108.256 227.956,107.423 226.5,107C 229.295,105.207 231.795,103.04 234,100.5C 234.333,100.833 234.667,101.167 235,101.5C 236.067,100.809 237.234,100.309 238.5,100C 238.167,99.6667 237.833,99.3333 237.5,99C 238.65,95.0905 240.983,93.9238 244.5,95.5C 244.281,96.675 244.614,97.675 245.5,98.5C 246.711,97.7261 246.711,96.8928 245.5,96C 248.078,93.8433 248.078,92.6767 245.5,92.5C 248.354,90.9848 250.02,88.6514 250.5,85.5 Z M 251.5,92.5 C 252.267,93.172 252.934,94.0053 253.5,95C 251.939,95.1881 251.272,94.3547 251.5,92.5 Z"/></g>
<g><path style="opacity:0.988" fill="#b054ff" d="M 212.5,71.5 C 210.935,73.7188 208.935,74.0521 206.5,72.5C 204.42,75.5425 201.753,76.8758 198.5,76.5C 197.395,77.8924 196.061,79.059 194.5,80C 197,80.8333 197.167,82 195,83.5C 193.187,82.3909 192.354,83.0576 192.5,85.5C 190.409,85.6816 188.409,85.3482 186.5,84.5C 185.585,85.3279 184.919,86.3279 184.5,87.5C 185.688,87.3069 187.022,87.8069 188.5,89C 186.939,89.3176 185.772,90.1509 185,91.5C 184.667,91.1667 184.333,90.8333 184,90.5C 183.667,91.5 183.333,92.5 183,93.5C 179.858,96.9929 176.025,99.1596 171.5,100C 172.5,100.333 173.5,100.667 174.5,101C 171.944,103.215 169.111,105.049 166,106.5C 165.577,105.044 164.744,104.544 163.5,105C 164.167,106.333 165.167,107.333 166.5,108C 166,108.5 165.5,109 165,109.5C 163.882,109.923 162.216,109.923 160,109.5C 159.5,109.167 159,108.833 158.5,108.5C 159.5,107.667 160.5,106.833 161.5,106C 160.231,106.109 159.231,105.942 158.5,105.5C 163.492,100.248 168.659,95.2476 174,90.5C 174.333,90.8333 174.667,91.1667 175,91.5C 176.487,90.7471 176.654,89.9138 175.5,89C 179.671,90.2533 180.338,89.2533 177.5,86C 181.034,85.4824 184.367,83.8157 187.5,81C 188.167,80.3333 188.833,79.6667 189.5,79C 188.327,75.8897 188.827,75.723 191,78.5C 192.052,75.7808 193.552,73.4475 195.5,71.5C 200.959,70.5155 206.625,70.5155 212.5,71.5 Z"/></g>
<g><path style="opacity:0.997" fill="#ca63ff" d="M 157.5,72.5 C 156.132,74.9578 153.632,76.9578 150,78.5C 149.113,81.7085 147.447,81.7085 145,78.5C 144.333,79.1667 144.333,79.8333 145,80.5C 146.586,81.376 148.086,82.376 149.5,83.5C 149.192,84.3081 148.692,84.9747 148,85.5C 144.581,82.6332 142.915,83.6332 143,88.5C 142.261,86.7795 141.427,85.1128 140.5,83.5C 139.709,84.0656 139.709,84.899 140.5,86C 139.521,91.4358 138.688,91.6024 138,86.5C 136.887,87.7604 136.72,88.927 137.5,90C 135.615,92.1637 133.615,93.4971 131.5,94C 131.833,94.3333 132.167,94.6667 132.5,95C 131.234,95.3095 130.067,95.8095 129,96.5C 128.667,96.1667 128.333,95.8333 128,95.5C 127.598,96.8721 127.098,98.2054 126.5,99.5C 123.202,100.965 120.702,103.298 119,106.5C 118.667,106.167 118.333,105.833 118,105.5C 116.221,107.017 116.721,107.851 119.5,108C 118.333,108.5 117.5,109.333 117,110.5C 116.667,110.167 116.333,109.833 116,109.5C 114.829,110.893 113.329,111.727 111.5,112C 112.167,112.333 112.833,112.667 113.5,113C 109.854,115.302 106.187,117.636 102.5,120C 103.167,120.333 103.833,120.667 104.5,121C 103.167,121.333 101.833,121.667 100.5,122C 99.3659,123.016 99.6992,123.683 101.5,124C 100.167,124.333 98.8333,124.667 97.5,125C 97.8333,125.333 98.1667,125.667 98.5,126C 97.6195,126.708 96.9528,127.542 96.5,128.5C 88.9129,132.791 82.9129,138.125 78.5,144.5C 77.5041,144.586 76.6708,144.252 76,143.5C 75.5581,145.679 74.5581,146.345 73,145.5C 72.1667,147.667 70.6667,149.167 68.5,150C 67.0787,151.421 65.2454,153.255 63,155.5C 62.6667,155.167 62.3333,154.833 62,154.5C 61.3333,155.833 60.6667,157.167 60,158.5C 59.6667,158.167 59.3333,157.833 59,157.5C 55.8904,162.563 51.5571,166.23 46,168.5C 45.5774,167.044 44.7441,166.544 43.5,167C 44.5733,168.25 44.5733,169.584 43.5,171C 43.9054,171.945 44.572,172.612 45.5,173C 44.2068,173.49 42.8734,173.657 41.5,173.5C 41.5,174.833 41.5,176.167 41.5,177.5C 35.8333,177.5 30.1667,177.5 24.5,177.5C 25.8775,176.766 27.3775,176.099 29,175.5C 30.5874,176.727 31.9207,176.394 33,174.5C 34.2931,171.566 34.7931,168.732 34.5,166C 35.7839,165.316 36.9505,165.483 38,166.5C 40.7685,163.694 43.9352,161.528 47.5,160C 45.8333,159 44.1667,158 42.5,157C 44.9326,156.234 46.766,154.734 48,152.5C 49.2504,153.573 50.5838,153.573 52,152.5C 52.9454,152.905 53.6121,153.572 54,154.5C 55.8482,152.321 58.0148,150.487 60.5,149C 60.1667,148.667 59.8333,148.333 59.5,148C 61.2205,147.261 62.8872,146.427 64.5,145.5C 63.4305,145.36 62.2639,145.36 61,145.5C 60.8598,143.479 60.6932,141.645 60.5,140C 61.8989,139.405 63.2322,139.572 64.5,140.5C 65.1667,139.833 65.8333,139.167 66.5,138.5C 67.4682,139.489 68.6349,140.156 70,140.5C 72.5655,140.157 73.3988,138.99 72.5,137C 73.3279,136.085 74.3279,135.419 75.5,135C 75.1667,134.667 74.8333,134.333 74.5,134C 76.027,132.632 77.527,132.132 79,132.5C 79.6172,131.551 79.4506,130.718 78.5,130C 81.0318,129.381 83.3651,128.381 85.5,127C 84.1667,126.333 84.1667,125.667 85.5,125C 84.5,124.667 83.5,124.333 82.5,124C 85.9555,123.82 89.2889,123.153 92.5,122C 91.8333,121.667 91.1667,121.333 90.5,121C 91.1667,119.667 91.8333,118.333 92.5,117C 94.1012,116.727 95.6012,116.227 97,115.5C 97.3333,115.833 97.6667,116.167 98,116.5C 98.8525,114.875 99.8525,114.542 101,115.5C 101.303,111.639 103.137,110.139 106.5,111C 105.643,110.311 104.977,109.478 104.5,108.5C 107.079,108.085 108.913,106.752 110,104.5C 110.718,105.451 111.551,105.617 112.5,105C 111.549,104.282 111.383,103.449 112,102.5C 113.507,103.535 115.007,103.368 116.5,102C 115.483,100.951 115.316,99.7839 116,98.5C 116.333,99.1667 116.667,99.8333 117,100.5C 118.193,98.3949 119.86,96.7282 122,95.5C 122.743,93.5594 122.576,91.7261 121.5,90C 122.744,89.5439 123.577,90.0439 124,91.5C 126.257,88.5086 127.924,85.1752 129,81.5C 129.667,82.1667 130.333,82.8333 131,83.5C 133.938,79.2529 138.438,76.7529 144.5,76C 143.584,75.6258 142.75,75.1258 142,74.5C 140.893,75.7119 140.393,75.3786 140.5,73.5C 146.075,72.5476 151.741,72.2143 157.5,72.5 Z"/></g>
<g><path style="opacity:0.996" fill="#7b36ff" d="M 256.5,98.5 C 256.811,105.294 255.478,111.961 252.5,118.5C 254.045,119.452 255.712,119.785 257.5,119.5C 255.906,120.983 254.24,122.483 252.5,124C 252.957,124.414 253.291,124.914 253.5,125.5C 251.27,126.783 248.937,127.783 246.5,128.5C 245.794,127.443 245.461,127.776 245.5,129.5C 245.167,129.5 244.833,129.5 244.5,129.5C 244.466,126.801 245.133,124.301 246.5,122C 240.538,121.851 234.538,121.685 228.5,121.5C 236.409,115.001 244.409,107.668 252.5,99.5C 253.689,98.5713 255.022,98.238 256.5,98.5 Z"/></g>
<g><path style="opacity:0.994" fill="#6e2eff" d="M 275.5,118.5 C 268.89,126.877 260.89,132.543 251.5,135.5C 252.506,136.396 252.506,137.062 251.5,137.5C 250.749,136.624 250.249,135.624 250,134.5C 249.781,135.938 249.281,137.271 248.5,138.5C 244.749,141.08 242.916,144.747 243,149.5C 242.667,149.167 242.333,148.833 242,148.5C 240.981,149.687 239.814,150.687 238.5,151.5C 237.893,151.376 237.56,151.043 237.5,150.5C 238.462,142.948 240.795,135.948 244.5,129.5C 244.833,129.5 245.167,129.5 245.5,129.5C 246.167,129.5 246.5,129.167 246.5,128.5C 248.937,127.783 251.27,126.783 253.5,125.5C 253.291,124.914 252.957,124.414 252.5,124C 254.24,122.483 255.906,120.983 257.5,119.5C 263.484,118.926 269.484,118.593 275.5,118.5 Z"/></g>
<g><path style="opacity:0.963" fill="#672bff" d="M 275.5,118.5 C 277.717,119.369 280.05,119.702 282.5,119.5C 281.402,120.397 281.402,121.23 282.5,122C 281.833,122.667 281.167,123.333 280.5,124C 275.263,125.54 272.429,128.707 272,133.5C 271.667,132.833 271.333,132.167 271,131.5C 264.711,135.12 260.045,139.786 257,145.5C 256.577,144.044 255.744,143.544 254.5,144C 254.833,144.333 255.167,144.667 255.5,145C 253.321,145.442 252.655,146.442 253.5,148C 252.5,148.333 251.5,148.667 250.5,149C 250.833,149.333 251.167,149.667 251.5,150C 249.333,150.833 247.833,152.333 247,154.5C 246.586,154.043 246.086,153.709 245.5,153.5C 244.032,155.774 242.198,157.774 240,159.5C 239.586,159.043 239.086,158.709 238.5,158.5C 237.416,161.088 235.749,163.255 233.5,165C 234.451,165.718 234.617,166.551 234,167.5C 233.085,166.672 232.419,165.672 232,164.5C 231.021,166.32 229.521,167.487 227.5,168C 227.833,168.333 228.167,168.667 228.5,169C 226.974,171.137 225.307,172.304 223.5,172.5C 224.811,173.258 225.311,174.258 225,175.5C 223.127,174.911 221.46,175.578 220,177.5C 219.667,177.167 219.333,176.833 219,176.5C 217.851,179.136 216.017,181.136 213.5,182.5C 214.83,185.849 214.33,186.182 212,183.5C 210.578,183.594 209.078,183.928 207.5,184.5C 207.881,186.741 208.048,189.074 208,191.5C 208.718,190.549 209.551,190.383 210.5,191C 209.619,191.708 208.953,192.542 208.5,193.5C 205.786,193.313 205.119,192.146 206.5,190C 205.983,187.433 204.983,187.099 203.5,189C 206.167,189.667 206.167,190.333 203.5,191C 204.34,192.666 203.84,192.833 202,191.5C 200.482,193.348 198.649,194.848 196.5,196C 197.76,197.113 198.927,197.28 200,196.5C 201.113,197.76 201.28,198.927 200.5,200C 199.004,200.507 197.837,200.007 197,198.5C 194.792,203.362 190.959,205.862 185.5,206C 184.809,207.067 184.309,208.234 184,209.5C 183,209.167 182,208.833 181,208.5C 181.046,210.313 180.88,211.979 180.5,213.5C 179.914,213.291 179.414,212.957 179,212.5C 177.333,213.833 175.667,215.167 174,216.5C 173.667,215.833 173.333,215.167 173,214.5C 172.768,215.737 172.268,216.737 171.5,217.5C 170.833,217.5 170.5,217.833 170.5,218.5C 166.639,219.541 166.639,220.541 170.5,221.5C 165.146,221.569 159.813,221.902 154.5,222.5C 157.807,221.398 160.807,219.565 163.5,217C 161.5,216.667 159.5,216.333 157.5,216C 156.549,215.282 156.383,214.449 157,213.5C 158.101,215.394 159.434,216.061 161,215.5C 162.127,212.093 163.46,212.426 165,216.5C 165.483,215.552 165.649,214.552 165.5,213.5C 166.5,213.5 167.5,213.5 168.5,213.5C 168.343,212.127 168.51,210.793 169,209.5C 170,212.167 171,212.167 172,209.5C 172.333,209.833 172.667,210.167 173,210.5C 173.628,206.873 175.795,205.04 179.5,205C 179.167,204.667 178.833,204.333 178.5,204C 181.193,200.715 180.526,199.382 176.5,200C 177.833,199.333 177.833,198.667 176.5,198C 179.172,197.166 181.839,196.332 184.5,195.5C 184.833,196.167 185.167,196.833 185.5,197.5C 187.134,197.032 188.3,196.032 189,194.5C 189.333,194.833 189.667,195.167 190,195.5C 191.574,194.016 192.907,192.349 194,190.5C 194.333,190.833 194.667,191.167 195,191.5C 195.862,189.406 197.028,188.406 198.5,188.5C 196.818,187.167 195.151,186 193.5,185C 194.667,184.5 195.5,183.667 196,182.5C 198.62,183.923 201.12,183.757 203.5,182C 202.377,180.956 201.044,180.29 199.5,180C 202.172,179.166 204.839,178.332 207.5,177.5C 208.086,177.709 208.586,178.043 209,178.5C 211.5,174.667 214.667,171.5 218.5,169C 217.944,168.617 217.611,168.117 217.5,167.5C 220.428,166.409 222.594,164.409 224,161.5C 225.073,162.28 226.24,162.113 227.5,161C 230.183,159.155 231.85,156.655 232.5,153.5C 234.36,152.74 236.027,151.74 237.5,150.5C 237.56,151.043 237.893,151.376 238.5,151.5C 239.814,150.687 240.981,149.687 242,148.5C 242.333,148.833 242.667,149.167 243,149.5C 242.916,144.747 244.749,141.08 248.5,138.5C 249.281,137.271 249.781,135.938 250,134.5C 250.249,135.624 250.749,136.624 251.5,137.5C 252.506,137.062 252.506,136.396 251.5,135.5C 260.89,132.543 268.89,126.877 275.5,118.5 Z"/></g>
<g><path style="opacity:0.989" fill="#6227ff" d="M 282.5,119.5 C 285.881,119.46 289.214,119.793 292.5,120.5C 292.611,121.117 292.944,121.617 293.5,122C 290.08,126.219 285.746,129.219 280.5,131C 280.833,131.333 281.167,131.667 281.5,132C 280.167,133.333 278.833,134.667 277.5,136C 278.167,136.333 278.833,136.667 279.5,137C 277.238,137.642 275.071,138.475 273,139.5C 272.342,141.108 272.842,142.275 274.5,143C 273.033,144.098 272.199,145.598 272,147.5C 268.817,141.956 266.484,142.29 265,148.5C 264.195,146.099 263.362,146.266 262.5,149C 260.404,150.766 258.071,152.099 255.5,153C 255.833,153.333 256.167,153.667 256.5,154C 247.905,161.112 239.572,168.278 231.5,175.5C 231.467,176.989 230.967,178.322 230,179.5C 228.846,177.043 227.512,177.043 226,179.5C 224.633,178.476 223.8,178.976 223.5,181C 224.022,181.95 224.689,182.784 225.5,183.5C 223.622,183.623 221.789,183.623 220,183.5C 218.186,184.851 218.519,185.851 221,186.5C 221.49,187.793 221.657,189.127 221.5,190.5C 218.641,190.408 216.141,190.075 214,189.5C 213.383,190.449 213.549,191.282 214.5,192C 212.122,192.974 212.456,193.641 215.5,194C 213.355,195.954 211.188,197.121 209,197.5C 209.331,195.981 209.164,194.648 208.5,193.5C 208.953,192.542 209.619,191.708 210.5,191C 209.551,190.383 208.718,190.549 208,191.5C 208.048,189.074 207.881,186.741 207.5,184.5C 209.078,183.928 210.578,183.594 212,183.5C 214.33,186.182 214.83,185.849 213.5,182.5C 216.017,181.136 217.851,179.136 219,176.5C 219.333,176.833 219.667,177.167 220,177.5C 221.46,175.578 223.127,174.911 225,175.5C 225.311,174.258 224.811,173.258 223.5,172.5C 225.307,172.304 226.974,171.137 228.5,169C 228.167,168.667 227.833,168.333 227.5,168C 229.521,167.487 231.021,166.32 232,164.5C 232.419,165.672 233.085,166.672 234,167.5C 234.617,166.551 234.451,165.718 233.5,165C 235.749,163.255 237.416,161.088 238.5,158.5C 239.086,158.709 239.586,159.043 240,159.5C 242.198,157.774 244.032,155.774 245.5,153.5C 246.086,153.709 246.586,154.043 247,154.5C 247.833,152.333 249.333,150.833 251.5,150C 251.167,149.667 250.833,149.333 250.5,149C 251.5,148.667 252.5,148.333 253.5,148C 252.655,146.442 253.321,145.442 255.5,145C 255.167,144.667 254.833,144.333 254.5,144C 255.744,143.544 256.577,144.044 257,145.5C 260.045,139.786 264.711,135.12 271,131.5C 271.333,132.167 271.667,132.833 272,133.5C 272.429,128.707 275.263,125.54 280.5,124C 281.167,123.333 281.833,122.667 282.5,122C 281.402,121.23 281.402,120.397 282.5,119.5 Z"/></g>
<g><path style="opacity:0.983" fill="#5d25ff" d="M 292.5,120.5 C 295.91,120.457 299.243,120.957 302.5,122C 300.381,122.342 300.047,123.175 301.5,124.5C 300.107,124.991 299.107,126.491 298.5,129C 297.167,129.333 295.833,129.667 294.5,130C 294.833,130.333 295.167,130.667 295.5,131C 292.01,133.491 288.843,136.325 286,139.5C 285.667,139.167 285.333,138.833 285,138.5C 283.127,140.39 282.294,142.39 282.5,144.5C 281.914,144.291 281.414,143.957 281,143.5C 279.266,144.249 277.433,144.749 275.5,145C 276.833,145.667 276.833,146.333 275.5,147C 276.167,147.333 276.833,147.667 277.5,148C 276.167,148.667 274.833,149.333 273.5,150C 275.301,150.317 275.634,150.984 274.5,152C 273.167,152.333 271.833,152.667 270.5,153C 267.859,154.667 265.693,156.833 264,159.5C 262.771,157.053 261.271,156.887 259.5,159C 261.686,159.604 261.852,160.77 260,162.5C 257.597,164.104 255.097,165.604 252.5,167C 253.517,168.049 253.684,169.216 253,170.5C 252.667,169.833 252.333,169.167 252,168.5C 251.751,169.624 251.251,170.624 250.5,171.5C 247.941,173.233 245.275,174.733 242.5,176C 242.833,176.333 243.167,176.667 243.5,177C 242.809,178.067 242.309,179.234 242,180.5C 241.581,179.328 240.915,178.328 240,177.5C 239.383,178.449 239.549,179.282 240.5,180C 236.329,178.747 235.662,179.747 238.5,183C 236.249,182.787 234.249,183.787 232.5,186C 233.381,186.708 234.047,187.542 234.5,188.5C 234.436,189.365 234.103,190.365 233.5,191.5C 232.761,191.631 232.094,191.464 231.5,191C 232.337,189.989 232.67,188.822 232.5,187.5C 231.448,187.351 230.448,187.517 229.5,188C 229.835,189.777 229.001,191.277 227,192.5C 225.238,192.056 225.405,191.556 227.5,191C 226.833,190.333 226.167,189.667 225.5,189C 228.035,186.411 227.702,186.078 224.5,188C 223.427,189.25 223.427,190.584 224.5,192C 223.041,195.293 220.708,197.793 217.5,199.5C 216.994,196.75 215.66,196.916 213.5,200C 214.167,200.333 214.833,200.667 215.5,201C 214.809,202.067 214.309,203.234 214,204.5C 212.16,203.167 211.66,203.334 212.5,205C 209.804,205.69 207.637,207.19 206,209.5C 205.577,208.044 204.744,207.544 203.5,208C 204.535,209.507 204.368,211.007 203,212.5C 201.488,213.257 200.154,214.257 199,215.5C 197.089,215.745 195.089,215.745 193,215.5C 192.833,215.833 192.667,216.167 192.5,216.5C 193.376,217.251 194.376,217.751 195.5,218C 193.881,218.236 192.881,219.069 192.5,220.5C 186.264,220.94 180.097,221.607 174,222.5C 172.989,221.663 171.822,221.33 170.5,221.5C 166.639,220.541 166.639,219.541 170.5,218.5C 171.167,218.5 171.5,218.167 171.5,217.5C 172.268,216.737 172.768,215.737 173,214.5C 173.333,215.167 173.667,215.833 174,216.5C 175.667,215.167 177.333,213.833 179,212.5C 179.414,212.957 179.914,213.291 180.5,213.5C 180.88,211.979 181.046,210.313 181,208.5C 182,208.833 183,209.167 184,209.5C 184.309,208.234 184.809,207.067 185.5,206C 190.959,205.862 194.792,203.362 197,198.5C 197.837,200.007 199.004,200.507 200.5,200C 201.28,198.927 201.113,197.76 200,196.5C 198.927,197.28 197.76,197.113 196.5,196C 198.649,194.848 200.482,193.348 202,191.5C 203.84,192.833 204.34,192.666 203.5,191C 206.167,190.333 206.167,189.667 203.5,189C 204.983,187.099 205.983,187.433 206.5,190C 205.119,192.146 205.786,193.313 208.5,193.5C 209.164,194.648 209.331,195.981 209,197.5C 211.188,197.121 213.355,195.954 215.5,194C 212.456,193.641 212.122,192.974 214.5,192C 213.549,191.282 213.383,190.449 214,189.5C 216.141,190.075 218.641,190.408 221.5,190.5C 221.657,189.127 221.49,187.793 221,186.5C 218.519,185.851 218.186,184.851 220,183.5C 221.789,183.623 223.622,183.623 225.5,183.5C 224.689,182.784 224.022,181.95 223.5,181C 223.8,178.976 224.633,178.476 226,179.5C 227.512,177.043 228.846,177.043 230,179.5C 230.967,178.322 231.467,176.989 231.5,175.5C 239.572,168.278 247.905,161.112 256.5,154C 256.167,153.667 255.833,153.333 255.5,153C 258.071,152.099 260.404,150.766 262.5,149C 263.362,146.266 264.195,146.099 265,148.5C 266.484,142.29 268.817,141.956 272,147.5C 272.199,145.598 273.033,144.098 274.5,143C 272.842,142.275 272.342,141.108 273,139.5C 275.071,138.475 277.238,137.642 279.5,137C 278.833,136.667 278.167,136.333 277.5,136C 278.833,134.667 280.167,133.333 281.5,132C 281.167,131.667 280.833,131.333 280.5,131C 285.746,129.219 290.08,126.219 293.5,122C 292.944,121.617 292.611,121.117 292.5,120.5 Z"/></g>
<g><path style="opacity:0.988" fill="#5621ff" d="M 301.5,124.5 C 305.38,124.198 308.38,125.531 310.5,128.5C 306.504,132.599 302.337,136.599 298,140.5C 297.667,140.167 297.333,139.833 297,139.5C 290.867,149.113 283.033,155.946 273.5,160C 275.947,161.229 276.113,162.729 274,164.5C 273.586,164.043 273.086,163.709 272.5,163.5C 266.137,166.698 261.304,171.365 258,177.5C 257,174.833 256,174.833 255,177.5C 254.282,176.549 253.449,176.383 252.5,177C 253.451,177.718 253.617,178.551 253,179.5C 249.93,180.296 248.263,182.296 248,185.5C 247.333,184.167 246.667,182.833 246,181.5C 244.548,182.907 244.715,184.407 246.5,186C 243.475,185.998 240.975,187.165 239,189.5C 237.644,188.62 236.144,188.286 234.5,188.5C 234.047,187.542 233.381,186.708 232.5,186C 234.249,183.787 236.249,182.787 238.5,183C 235.662,179.747 236.329,178.747 240.5,180C 239.549,179.282 239.383,178.449 240,177.5C 240.915,178.328 241.581,179.328 242,180.5C 242.309,179.234 242.809,178.067 243.5,177C 243.167,176.667 242.833,176.333 242.5,176C 245.275,174.733 247.941,173.233 250.5,171.5C 251.251,170.624 251.751,169.624 252,168.5C 252.333,169.167 252.667,169.833 253,170.5C 253.684,169.216 253.517,168.049 252.5,167C 255.097,165.604 257.597,164.104 260,162.5C 261.852,160.77 261.686,159.604 259.5,159C 261.271,156.887 262.771,157.053 264,159.5C 265.693,156.833 267.859,154.667 270.5,153C 271.833,152.667 273.167,152.333 274.5,152C 275.634,150.984 275.301,150.317 273.5,150C 274.833,149.333 276.167,148.667 277.5,148C 276.833,147.667 276.167,147.333 275.5,147C 276.833,146.333 276.833,145.667 275.5,145C 277.433,144.749 279.266,144.249 281,143.5C 281.414,143.957 281.914,144.291 282.5,144.5C 282.294,142.39 283.127,140.39 285,138.5C 285.333,138.833 285.667,139.167 286,139.5C 288.843,136.325 292.01,133.491 295.5,131C 295.167,130.667 294.833,130.333 294.5,130C 295.833,129.667 297.167,129.333 298.5,129C 299.107,126.491 300.107,124.991 301.5,124.5 Z"/></g>
<g><path style="opacity:0.993" fill="#521eff" d="M 310.5,128.5 C 314.391,129.727 316.391,132.394 316.5,136.5C 315.504,136.586 314.671,136.252 314,135.5C 313.448,138.047 312.114,140.047 310,141.5C 309.667,140.833 309.333,140.167 309,139.5C 308.277,142.311 306.444,144.811 303.5,147C 300.332,148.777 297.665,151.111 295.5,154C 294.552,154.483 293.552,154.649 292.5,154.5C 292.649,155.552 292.483,156.552 292,157.5C 291.667,156.167 291.333,154.833 291,153.5C 290.333,155.5 289.667,157.5 289,159.5C 287.333,160.5 285.667,161.5 284,162.5C 283.517,163.448 283.351,164.448 283.5,165.5C 279.818,167.324 276.484,169.824 273.5,173C 273.833,173.333 274.167,173.667 274.5,174C 273.234,174.309 272.067,174.809 271,175.5C 269.667,174.167 268.333,174.167 267,175.5C 265.236,173.339 263.403,173.172 261.5,175C 262.706,179.364 262.206,179.531 260,175.5C 258.909,177.718 257.743,179.884 256.5,182C 256.833,182.333 257.167,182.667 257.5,183C 256.256,183.456 255.423,182.956 255,181.5C 252.833,183 253,184.167 255.5,185C 254.033,186.098 253.199,187.598 253,189.5C 251.604,191.527 249.938,191.86 248,190.5C 248.241,193.074 247.908,195.407 247,197.5C 243.056,192.088 240.389,192.422 239,198.5C 237.915,196.343 236.749,196.176 235.5,198C 236.167,198.333 236.833,198.667 237.5,199C 235.269,200.61 233.269,202.443 231.5,204.5C 232.729,205.281 234.062,205.781 235.5,206C 234.747,207.487 233.914,207.654 233,206.5C 232.683,208.301 232.016,208.634 231,207.5C 230.033,208.678 229.533,210.011 229.5,211.5C 227.454,209.086 225.454,209.253 223.5,212C 223.042,214.398 221.708,216.064 219.5,217C 220.581,218.711 220.248,220.211 218.5,221.5C 214.167,221.5 209.833,221.5 205.5,221.5C 205.721,220.265 206.388,219.265 207.5,218.5C 206.371,216.471 206.871,216.137 209,217.5C 210.309,215.109 211.309,215.109 212,217.5C 212.442,215.321 213.442,214.655 215,215.5C 215.483,214.552 215.649,213.552 215.5,212.5C 213.143,212.663 210.81,212.497 208.5,212C 211.43,211.394 214.263,210.56 217,209.5C 218.337,210.765 219.837,211.265 221.5,211C 220.672,210.085 219.672,209.419 218.5,209C 222.852,208.581 223.185,207.914 219.5,207C 220.448,206.517 221.448,206.351 222.5,206.5C 222.528,204.418 221.861,202.584 220.5,201C 222.125,200.147 222.458,199.147 221.5,198C 222.965,197.399 223.965,197.899 224.5,199.5C 223.975,200.192 223.308,200.692 222.5,201C 223.227,202.399 223.727,203.899 224,205.5C 224.287,203.017 224.954,200.35 226,197.5C 226.308,198.308 226.808,198.975 227.5,199.5C 228.814,198.687 229.981,197.687 231,196.5C 231.914,200.185 232.581,199.852 233,195.5C 235.934,194.577 236.1,193.244 233.5,191.5C 234.103,190.365 234.436,189.365 234.5,188.5C 236.144,188.286 237.644,188.62 239,189.5C 240.975,187.165 243.475,185.998 246.5,186C 244.715,184.407 244.548,182.907 246,181.5C 246.667,182.833 247.333,184.167 248,185.5C 248.263,182.296 249.93,180.296 253,179.5C 253.617,178.551 253.451,177.718 252.5,177C 253.449,176.383 254.282,176.549 255,177.5C 256,174.833 257,174.833 258,177.5C 261.304,171.365 266.137,166.698 272.5,163.5C 273.086,163.709 273.586,164.043 274,164.5C 276.113,162.729 275.947,161.229 273.5,160C 283.033,155.946 290.867,149.113 297,139.5C 297.333,139.833 297.667,140.167 298,140.5C 302.337,136.599 306.504,132.599 310.5,128.5 Z"/></g>
<g><path style="opacity:0.97" fill="#4e1cff" d="M 316.5,136.5 C 317.203,138.629 318.203,140.629 319.5,142.5C 319.5,144.5 319.5,146.5 319.5,148.5C 319.167,148.5 318.833,148.5 318.5,148.5C 318.657,147.127 318.49,145.793 318,144.5C 315.312,147.022 312.479,149.356 309.5,151.5C 308.719,152.729 308.219,154.062 308,155.5C 307.667,154.5 307.333,153.5 307,152.5C 306.115,155 304.948,157.333 303.5,159.5C 301.756,158.97 300.256,158.97 299,159.5C 298.535,160.931 297.701,162.097 296.5,163C 297.517,164.049 297.684,165.216 297,166.5C 295.853,165.542 294.853,165.875 294,167.5C 293.282,166.549 292.449,166.383 291.5,167C 290.5,168.667 289.167,170 287.5,171C 289.709,171.957 289.543,173.124 287,174.5C 284.684,173.633 282.684,174.299 281,176.5C 280.508,177.549 280.674,178.549 281.5,179.5C 279.784,179.997 278.117,180.331 276.5,180.5C 278.911,182.319 279.078,184.319 277,186.5C 275.719,186.619 274.552,186.119 273.5,185C 274.167,184.667 274.833,184.333 275.5,184C 274.207,183.51 272.873,183.343 271.5,183.5C 271.297,185.39 271.963,186.89 273.5,188C 272.252,189.959 270.585,191.459 268.5,192.5C 267.105,191.185 266.105,191.519 265.5,193.5C 264.311,194.429 262.978,194.762 261.5,194.5C 261.034,196.201 261.034,197.701 261.5,199C 253.253,201.713 253.586,203.046 262.5,203C 259.274,204.199 255.941,204.699 252.5,204.5C 252.649,203.448 252.483,202.448 252,201.5C 251.5,203.333 250.333,204.5 248.5,205C 249.654,205.914 249.487,206.747 248,207.5C 247.586,207.043 247.086,206.709 246.5,206.5C 245.757,207.908 244.923,209.241 244,210.5C 242.951,209.483 241.784,209.316 240.5,210C 240.404,211.373 240.57,212.873 241,214.5C 240.667,214.167 240.333,213.833 240,213.5C 239.716,215.886 238.716,216.552 237,215.5C 234.711,217.427 232.544,218.761 230.5,219.5C 231.602,220.176 232.602,220.842 233.5,221.5C 228.5,221.5 223.5,221.5 218.5,221.5C 220.248,220.211 220.581,218.711 219.5,217C 221.708,216.064 223.042,214.398 223.5,212C 225.454,209.253 227.454,209.086 229.5,211.5C 229.533,210.011 230.033,208.678 231,207.5C 232.016,208.634 232.683,208.301 233,206.5C 233.914,207.654 234.747,207.487 235.5,206C 234.062,205.781 232.729,205.281 231.5,204.5C 233.269,202.443 235.269,200.61 237.5,199C 236.833,198.667 236.167,198.333 235.5,198C 236.749,196.176 237.915,196.343 239,198.5C 240.389,192.422 243.056,192.088 247,197.5C 247.908,195.407 248.241,193.074 248,190.5C 249.938,191.86 251.604,191.527 253,189.5C 253.199,187.598 254.033,186.098 255.5,185C 253,184.167 252.833,183 255,181.5C 255.423,182.956 256.256,183.456 257.5,183C 257.167,182.667 256.833,182.333 256.5,182C 257.743,179.884 258.909,177.718 260,175.5C 262.206,179.531 262.706,179.364 261.5,175C 263.403,173.172 265.236,173.339 267,175.5C 268.333,174.167 269.667,174.167 271,175.5C 272.067,174.809 273.234,174.309 274.5,174C 274.167,173.667 273.833,173.333 273.5,173C 276.484,169.824 279.818,167.324 283.5,165.5C 283.351,164.448 283.517,163.448 284,162.5C 285.667,161.5 287.333,160.5 289,159.5C 289.667,157.5 290.333,155.5 291,153.5C 291.333,154.833 291.667,156.167 292,157.5C 292.483,156.552 292.649,155.552 292.5,154.5C 293.552,154.649 294.552,154.483 295.5,154C 297.665,151.111 300.332,148.777 303.5,147C 306.444,144.811 308.277,142.311 309,139.5C 309.333,140.167 309.667,140.833 310,141.5C 312.114,140.047 313.448,138.047 314,135.5C 314.671,136.252 315.504,136.586 316.5,136.5 Z"/></g>
<g><path style="opacity:0.983" fill="#c460ff" d="M 78.5,144.5 C 74.4954,151.545 71.1621,159.211 68.5,167.5C 68.5654,167.062 68.3988,166.728 68,166.5C 67.2496,167.126 66.4162,167.626 65.5,168C 66.6537,168.914 66.487,169.747 65,170.5C 64.6667,170.167 64.3333,169.833 64,169.5C 61.2772,172.799 58.4439,175.132 55.5,176.5C 50.4479,177.335 45.7812,177.669 41.5,177.5C 41.5,176.167 41.5,174.833 41.5,173.5C 42.8734,173.657 44.2068,173.49 45.5,173C 44.572,172.612 43.9054,171.945 43.5,171C 44.5733,169.584 44.5733,168.25 43.5,167C 44.7441,166.544 45.5774,167.044 46,168.5C 51.5571,166.23 55.8904,162.563 59,157.5C 59.3333,157.833 59.6667,158.167 60,158.5C 60.6667,157.167 61.3333,155.833 62,154.5C 62.3333,154.833 62.6667,155.167 63,155.5C 65.2454,153.255 67.0787,151.421 68.5,150C 70.6667,149.167 72.1667,147.667 73,145.5C 74.5581,146.345 75.5581,145.679 76,143.5C 76.6708,144.252 77.5041,144.586 78.5,144.5 Z"/></g>
<g><path style="opacity:0.981" fill="#4a19ff" d="M 318.5,148.5 C 318.5,149.167 318.833,149.5 319.5,149.5C 319.5,149.833 319.5,150.167 319.5,150.5C 318.167,150.833 318.167,151.167 319.5,151.5C 319.5,152.167 319.5,152.833 319.5,153.5C 316.754,157.48 314.754,161.813 313.5,166.5C 313.649,165.448 313.483,164.448 313,163.5C 304.558,170.318 296.725,177.151 289.5,184C 290.167,184.667 290.833,185.333 291.5,186C 289.432,186.687 287.432,186.52 285.5,185.5C 283.299,187.056 283.299,188.223 285.5,189C 282.879,189.642 280.212,190.975 277.5,193C 277.616,194.268 277.949,195.602 278.5,197C 276.77,198.852 275.604,198.686 275,196.5C 273.883,197.949 273.216,199.616 273,201.5C 268.67,200.287 265.504,201.787 263.5,206C 261.754,206.471 260.087,207.138 258.5,208C 258.018,209.008 257.852,210.175 258,211.5C 254.703,213.891 251.537,216.391 248.5,219C 249.094,219.464 249.761,219.631 250.5,219.5C 244.733,220.536 239.066,221.202 233.5,221.5C 232.602,220.842 231.602,220.176 230.5,219.5C 232.544,218.761 234.711,217.427 237,215.5C 238.716,216.552 239.716,215.886 240,213.5C 240.333,213.833 240.667,214.167 241,214.5C 240.57,212.873 240.404,211.373 240.5,210C 241.784,209.316 242.951,209.483 244,210.5C 244.923,209.241 245.757,207.908 246.5,206.5C 247.086,206.709 247.586,207.043 248,207.5C 249.487,206.747 249.654,205.914 248.5,205C 250.333,204.5 251.5,203.333 252,201.5C 252.483,202.448 252.649,203.448 252.5,204.5C 255.941,204.699 259.274,204.199 262.5,203C 253.586,203.046 253.253,201.713 261.5,199C 261.034,197.701 261.034,196.201 261.5,194.5C 262.978,194.762 264.311,194.429 265.5,193.5C 266.105,191.519 267.105,191.185 268.5,192.5C 270.585,191.459 272.252,189.959 273.5,188C 271.963,186.89 271.297,185.39 271.5,183.5C 272.873,183.343 274.207,183.51 275.5,184C 274.833,184.333 274.167,184.667 273.5,185C 274.552,186.119 275.719,186.619 277,186.5C 279.078,184.319 278.911,182.319 276.5,180.5C 278.117,180.331 279.784,179.997 281.5,179.5C 280.674,178.549 280.508,177.549 281,176.5C 282.684,174.299 284.684,173.633 287,174.5C 289.543,173.124 289.709,171.957 287.5,171C 289.167,170 290.5,168.667 291.5,167C 292.449,166.383 293.282,166.549 294,167.5C 294.853,165.875 295.853,165.542 297,166.5C 297.684,165.216 297.517,164.049 296.5,163C 297.701,162.097 298.535,160.931 299,159.5C 300.256,158.97 301.756,158.97 303.5,159.5C 304.948,157.333 306.115,155 307,152.5C 307.333,153.5 307.667,154.5 308,155.5C 308.219,154.062 308.719,152.729 309.5,151.5C 312.479,149.356 315.312,147.022 318,144.5C 318.49,145.793 318.657,147.127 318.5,148.5 Z"/></g>
<g><path style="opacity:0.996" fill="#4819ff" d="M 313.5,166.5 C 311.498,178.997 307.331,190.997 301,202.5C 300,203.833 299,203.833 298,202.5C 296.373,203.532 295.207,204.866 294.5,206.5C 293.579,207.981 292.412,209.314 291,210.5C 278.119,217.268 264.619,220.268 250.5,219.5C 249.761,219.631 249.094,219.464 248.5,219C 251.537,216.391 254.703,213.891 258,211.5C 257.852,210.175 258.018,209.008 258.5,208C 260.087,207.138 261.754,206.471 263.5,206C 265.504,201.787 268.67,200.287 273,201.5C 273.216,199.616 273.883,197.949 275,196.5C 275.604,198.686 276.77,198.852 278.5,197C 277.949,195.602 277.616,194.268 277.5,193C 280.212,190.975 282.879,189.642 285.5,189C 283.299,188.223 283.299,187.056 285.5,185.5C 287.432,186.52 289.432,186.687 291.5,186C 290.833,185.333 290.167,184.667 289.5,184C 296.725,177.151 304.558,170.318 313,163.5C 313.483,164.448 313.649,165.448 313.5,166.5 Z"/></g>
<g><path style="opacity:0.977" fill="#8e41ff" d="M 151.5,171.5 C 148.993,174.84 145.993,177.673 142.5,180C 143,180.5 143.5,181 144,181.5C 145.867,181.686 147.867,181.353 150,180.5C 151.257,180.85 151.591,181.517 151,182.5C 150.667,182.167 150.333,181.833 150,181.5C 149.311,182.357 148.478,183.023 147.5,183.5C 146.289,182.61 144.955,182.61 143.5,183.5C 142.353,183.182 141.519,182.516 141,181.5C 135.891,185.106 131.724,189.439 128.5,194.5C 127.448,194.351 126.448,194.517 125.5,195C 127.132,196.31 128.799,196.81 130.5,196.5C 127.816,197.139 125.316,197.139 123,196.5C 122.517,197.448 122.351,198.448 122.5,199.5C 120.567,199.729 118.9,200.562 117.5,202C 116.025,204.309 114.358,206.476 112.5,208.5C 111.011,208.533 109.678,209.033 108.5,210C 108.833,211 109.167,212 109.5,213C 108.256,213.456 107.423,212.956 107,211.5C 98.5491,218.236 90.0491,225.736 81.5,234C 79.714,234.785 78.214,235.951 77,237.5C 76.6667,237.167 76.3333,236.833 76,236.5C 75.5348,237.931 74.7014,239.097 73.5,240C 74.6537,240.914 74.487,241.747 73,242.5C 72.6667,242.167 72.3333,241.833 72,241.5C 70.6667,242.833 69.3333,244.167 68,245.5C 67.6667,245.167 67.3333,244.833 67,244.5C 63.1948,248.719 59.3614,253.552 55.5,259C 54.5,258.667 53.5,258.333 52.5,258C 50.6217,259.543 49.1217,261.376 48,263.5C 47.6667,263.167 47.3333,262.833 47,262.5C 46.2515,264.332 45.2515,265.999 44,267.5C 42.8525,266.542 41.8525,266.875 41,268.5C 40.3333,272.5 39.6667,272.5 39,268.5C 38.1932,272.449 37.6932,272.449 37.5,268.5C 38.4293,267.685 39.4293,266.852 40.5,266C 39.9558,265.283 39.2891,264.783 38.5,264.5C 39.1894,263.226 40.0228,263.226 41,264.5C 41.21,262.942 41.71,261.609 42.5,260.5C 65.2829,240.688 86.6162,222.188 106.5,205C 105.833,204.667 105.167,204.333 104.5,204C 106.5,203.167 108.5,202.333 110.5,201.5C 110.561,199.439 110.561,197.439 110.5,195.5C 109.153,194.829 107.986,194.829 107,195.5C 106.5,195 106,194.5 105.5,194C 106.793,193.51 108.127,193.343 109.5,193.5C 109.351,192.448 109.517,191.448 110,190.5C 112.551,191.379 114.885,191.379 117,190.5C 120.989,186.511 124.989,182.511 129,178.5C 129.333,178.833 129.667,179.167 130,179.5C 130.242,177.862 131.075,176.362 132.5,175C 133.5,174.667 134.5,174.333 135.5,174C 132.854,173.503 130.187,173.336 127.5,173.5C 130.36,172.756 133.36,172.089 136.5,171.5C 141.379,171.687 146.379,171.687 151.5,171.5 Z"/></g>
<g><path style="opacity:0.99" fill="#873dff" d="M 168.5,171.5 C 164.625,175.713 160.792,180.047 157,184.5C 156.667,184.167 156.333,183.833 156,183.5C 153.782,185.092 152.115,187.092 151,189.5C 150.667,189.167 150.333,188.833 150,188.5C 148.764,190.538 146.931,191.705 144.5,192C 145.833,192.667 145.833,193.333 144.5,194C 143.552,194.483 142.552,194.649 141.5,194.5C 140.951,196.901 140.118,199.235 139,201.5C 137.493,200.465 135.993,200.632 134.5,202C 134.833,202.333 135.167,202.667 135.5,203C 132.43,202.008 129.43,202.341 126.5,204C 127.5,204.833 128.5,205.667 129.5,206.5C 127.917,206.618 126.251,207.451 124.5,209C 125.167,209.667 125.833,210.333 126.5,211C 120.075,213.261 115.409,217.428 112.5,223.5C 109.387,223.006 106.387,223.839 103.5,226C 91.5129,234.336 79.8462,243.169 68.5,252.5C 66.5776,253.96 65.9109,255.627 66.5,257.5C 65.8076,256.975 65.3076,256.308 65,255.5C 58.39,258.9 52.5566,263.4 47.5,269C 48.1667,269.333 48.8333,269.667 49.5,270C 47.5,271 45.5,272 43.5,273C 42.1667,273.667 42.1667,274.333 43.5,275C 41.6969,275.637 40.3636,276.803 39.5,278.5C 38.914,278.291 38.414,277.957 38,277.5C 37.5639,275.153 37.0639,272.819 36.5,270.5C 36.5427,269.584 36.8761,268.917 37.5,268.5C 37.6932,272.449 38.1932,272.449 39,268.5C 39.6667,272.5 40.3333,272.5 41,268.5C 41.8525,266.875 42.8525,266.542 44,267.5C 45.2515,265.999 46.2515,264.332 47,262.5C 47.3333,262.833 47.6667,263.167 48,263.5C 49.1217,261.376 50.6217,259.543 52.5,258C 53.5,258.333 54.5,258.667 55.5,259C 59.3614,253.552 63.1948,248.719 67,244.5C 67.3333,244.833 67.6667,245.167 68,245.5C 69.3333,244.167 70.6667,242.833 72,241.5C 72.3333,241.833 72.6667,242.167 73,242.5C 74.487,241.747 74.6537,240.914 73.5,240C 74.7014,239.097 75.5348,237.931 76,236.5C 76.3333,236.833 76.6667,237.167 77,237.5C 78.214,235.951 79.714,234.785 81.5,234C 90.0491,225.736 98.5491,218.236 107,211.5C 107.423,212.956 108.256,213.456 109.5,213C 109.167,212 108.833,211 108.5,210C 109.678,209.033 111.011,208.533 112.5,208.5C 114.358,206.476 116.025,204.309 117.5,202C 118.9,200.562 120.567,199.729 122.5,199.5C 122.351,198.448 122.517,197.448 123,196.5C 125.316,197.139 127.816,197.139 130.5,196.5C 128.799,196.81 127.132,196.31 125.5,195C 126.448,194.517 127.448,194.351 128.5,194.5C 131.724,189.439 135.891,185.106 141,181.5C 141.519,182.516 142.353,183.182 143.5,183.5C 144.955,182.61 146.289,182.61 147.5,183.5C 148.478,183.023 149.311,182.357 150,181.5C 150.333,181.833 150.667,182.167 151,182.5C 151.591,181.517 151.257,180.85 150,180.5C 147.867,181.353 145.867,181.686 144,181.5C 143.5,181 143,180.5 142.5,180C 145.993,177.673 148.993,174.84 151.5,171.5C 157.298,170.63 162.965,170.63 168.5,171.5 Z"/></g>
<g><path style="opacity:0.979" fill="#a04cff" d="M 118.5,173.5 C 98.3581,191.965 78.6915,208.798 59.5,224C 59.8333,224.333 60.1667,224.667 60.5,225C 57.2986,226.868 54.7986,229.368 53,232.5C 52.0494,232.116 51.2161,231.783 50.5,231.5C 50.2153,228.171 50.8819,225.171 52.5,222.5C 64.8424,211.814 76.0091,202.147 86,193.5C 86.1667,193.167 86.3333,192.833 86.5,192.5C 85.0921,191.757 83.7588,190.923 82.5,190C 83.8333,189.333 83.8333,188.667 82.5,188C 84.8566,188.175 87.0232,188.342 89,188.5C 91.7123,187.132 94.5456,186.299 97.5,186C 92.2792,185.458 92.2792,184.624 97.5,183.5C 97.2907,182.914 96.9574,182.414 96.5,182C 97.7376,182.077 98.7376,181.911 99.5,181.5C 97.9223,180.702 96.2556,180.202 94.5,180C 95.8333,179.333 95.8333,178.667 94.5,178C 96.2788,175.495 98.6121,173.995 101.5,173.5C 106.918,173.378 112.584,173.378 118.5,173.5 Z"/></g>
<g><path style="opacity:0.996" fill="#7a35ff" d="M 176.5,170.5 C 185.768,170.403 194.435,170.736 202.5,171.5C 199.975,173.288 197.309,174.122 194.5,174C 192.559,175.816 191.892,177.816 192.5,180C 190.39,179.653 188.39,179.82 186.5,180.5C 184.914,179.587 183.414,179.587 182,180.5C 180.956,179.377 180.29,178.044 180,176.5C 179.667,177.5 179.333,178.5 179,179.5C 178.667,179.167 178.333,178.833 178,178.5C 177.667,180.167 177.333,181.833 177,183.5C 175.951,182.483 174.784,182.316 173.5,183C 173.833,183.333 174.167,183.667 174.5,184C 172.345,186.489 169.678,188.156 166.5,189C 168.901,189.805 168.734,190.638 166,191.5C 165.667,191.167 165.333,190.833 165,190.5C 163.26,191.716 162.26,193.382 162,195.5C 158.166,197.247 155.166,199.914 153,203.5C 152.259,202.359 151.425,202.359 150.5,203.5C 148.878,204.933 147.545,206.599 146.5,208.5C 144.471,207.371 144.137,207.871 145.5,210C 143.945,211.646 142.279,211.979 140.5,211C 140.488,212.84 139.654,214.673 138,216.5C 137.667,215.833 137.333,215.167 137,214.5C 138.156,219.001 136.489,220.335 132,218.5C 129.527,219.74 129.027,221.407 130.5,223.5C 126.5,223.5 122.5,223.5 118.5,223.5C 119.82,221.636 121.487,219.969 123.5,218.5C 124.192,219.025 124.692,219.692 125,220.5C 125.442,218.321 126.442,217.655 128,218.5C 130.192,216.765 132.692,215.598 135.5,215C 134.833,214.667 134.167,214.333 133.5,214C 134.841,212.705 136.174,212.205 137.5,212.5C 134.956,211.063 134.956,209.563 137.5,208C 136.044,207.577 135.544,206.744 136,205.5C 137.333,206.167 138.667,206.833 140,207.5C 141.685,205.983 143.185,204.316 144.5,202.5C 149.716,203.143 149.716,202.31 144.5,200C 145.833,199.667 147.167,199.333 148.5,199C 148.835,197.836 148.835,196.503 148.5,195C 150.443,191.668 151.61,191.834 152,195.5C 152.49,194.207 152.657,192.873 152.5,191.5C 155.238,192.035 157.072,191.035 158,188.5C 158.725,190.158 159.892,190.658 161.5,190C 161.167,189.667 160.833,189.333 160.5,189C 162.679,188.558 163.345,187.558 162.5,186C 163.126,185.25 163.626,184.416 164,183.5C 164.333,183.833 164.667,184.167 165,184.5C 167.124,179.604 168.457,179.604 169,184.5C 169.401,181.301 170.234,178.301 171.5,175.5C 173.484,175.617 175.15,174.95 176.5,173.5C 175.624,172.749 174.624,172.249 173.5,172C 174.737,171.768 175.737,171.268 176.5,170.5 Z"/></g>
<g><path style="opacity:0.951" fill="#b758ff" d="M 68.5,167.5 C 68.3259,169.861 67.9926,172.194 67.5,174.5C 71.0442,174.28 74.3776,174.28 77.5,174.5C 78.7383,174.81 78.7383,175.31 77.5,176C 75.032,177.384 72.8653,179.217 71,181.5C 70.6667,181.167 70.3333,180.833 70,180.5C 67.5883,183.711 64.9216,186.711 62,189.5C 61.5357,188.906 61.369,188.239 61.5,187.5C 62.4968,183.863 62.9968,180.196 63,176.5C 60.3953,177.814 57.8953,177.814 55.5,176.5C 58.4439,175.132 61.2772,172.799 64,169.5C 64.3333,169.833 64.6667,170.167 65,170.5C 66.487,169.747 66.6537,168.914 65.5,168C 66.4162,167.626 67.2496,167.126 68,166.5C 68.3988,166.728 68.5654,167.062 68.5,167.5 Z"/></g>
<g><path style="opacity:0.972" fill="#7533ff" d="M 186.5,180.5 C 184.434,183.055 182.601,185.722 181,188.5C 180.396,186.314 179.23,186.148 177.5,188C 176.412,190.151 174.578,192.318 172,194.5C 171.667,194.167 171.333,193.833 171,193.5C 169.39,195.578 168.39,197.578 168,199.5C 166.667,199.5 165.333,199.5 164,199.5C 161.316,203.334 158.483,206.334 155.5,208.5C 156.376,209.251 157.376,209.751 158.5,210C 156.276,212.149 154.776,211.649 154,208.5C 153.535,209.931 152.701,211.097 151.5,212C 154.197,215.774 153.697,216.274 150,213.5C 147.035,214.722 146.868,216.222 149.5,218C 146.833,218 144.167,218 141.5,218C 142.162,219.332 143.328,220.498 145,221.5C 145.718,220.549 146.551,220.383 147.5,221C 146.262,221.69 146.262,222.19 147.5,222.5C 142.025,223.489 136.358,223.822 130.5,223.5C 129.027,221.407 129.527,219.74 132,218.5C 136.489,220.335 138.156,219.001 137,214.5C 137.333,215.167 137.667,215.833 138,216.5C 139.654,214.673 140.488,212.84 140.5,211C 142.279,211.979 143.945,211.646 145.5,210C 144.137,207.871 144.471,207.371 146.5,208.5C 147.545,206.599 148.878,204.933 150.5,203.5C 151.425,202.359 152.259,202.359 153,203.5C 155.166,199.914 158.166,197.247 162,195.5C 162.26,193.382 163.26,191.716 165,190.5C 165.333,190.833 165.667,191.167 166,191.5C 168.734,190.638 168.901,189.805 166.5,189C 169.678,188.156 172.345,186.489 174.5,184C 174.167,183.667 173.833,183.333 173.5,183C 174.784,182.316 175.951,182.483 177,183.5C 177.333,181.833 177.667,180.167 178,178.5C 178.333,178.833 178.667,179.167 179,179.5C 179.333,178.5 179.667,177.5 180,176.5C 180.29,178.044 180.956,179.377 182,180.5C 183.414,179.587 184.914,179.587 186.5,180.5 Z"/></g>
<g><path style="opacity:0.994" fill="#6d2eff" d="M 217.5,167.5 C 217.611,168.117 217.944,168.617 218.5,169C 214.667,171.5 211.5,174.667 209,178.5C 208.586,178.043 208.086,177.709 207.5,177.5C 204.839,178.332 202.172,179.166 199.5,180C 201.044,180.29 202.377,180.956 203.5,182C 201.12,183.757 198.62,183.923 196,182.5C 195.5,183.667 194.667,184.5 193.5,185C 195.151,186 196.818,187.167 198.5,188.5C 197.028,188.406 195.862,189.406 195,191.5C 194.667,191.167 194.333,190.833 194,190.5C 192.907,192.349 191.574,194.016 190,195.5C 189.667,195.167 189.333,194.833 189,194.5C 188.3,196.032 187.134,197.032 185.5,197.5C 185.167,196.833 184.833,196.167 184.5,195.5C 181.839,196.332 179.172,197.166 176.5,198C 177.833,198.667 177.833,199.333 176.5,200C 180.526,199.382 181.193,200.715 178.5,204C 178.833,204.333 179.167,204.667 179.5,205C 175.795,205.04 173.628,206.873 173,210.5C 172.667,210.167 172.333,209.833 172,209.5C 171,212.167 170,212.167 169,209.5C 168.51,210.793 168.343,212.127 168.5,213.5C 167.5,213.5 166.5,213.5 165.5,213.5C 165.649,214.552 165.483,215.552 165,216.5C 163.46,212.426 162.127,212.093 161,215.5C 159.434,216.061 158.101,215.394 157,213.5C 156.383,214.449 156.549,215.282 157.5,216C 159.5,216.333 161.5,216.667 163.5,217C 160.807,219.565 157.807,221.398 154.5,222.5C 152.167,222.5 149.833,222.5 147.5,222.5C 146.262,222.19 146.262,221.69 147.5,221C 146.551,220.383 145.718,220.549 145,221.5C 143.328,220.498 142.162,219.332 141.5,218C 144.167,218 146.833,218 149.5,218C 146.868,216.222 147.035,214.722 150,213.5C 153.697,216.274 154.197,215.774 151.5,212C 152.701,211.097 153.535,209.931 154,208.5C 154.776,211.649 156.276,212.149 158.5,210C 157.376,209.751 156.376,209.251 155.5,208.5C 158.483,206.334 161.316,203.334 164,199.5C 165.333,199.5 166.667,199.5 168,199.5C 168.39,197.578 169.39,195.578 171,193.5C 171.333,193.833 171.667,194.167 172,194.5C 174.578,192.318 176.412,190.151 177.5,188C 179.23,186.148 180.396,186.314 181,188.5C 182.601,185.722 184.434,183.055 186.5,180.5C 188.39,179.82 190.39,179.653 192.5,180C 191.892,177.816 192.559,175.816 194.5,174C 197.309,174.122 199.975,173.288 202.5,171.5C 207.357,171.096 212.357,169.763 217.5,167.5 Z"/></g>
<g><path style="opacity:0.971" fill="#b054ff" d="M 90.5,173.5 C 86.8677,177.12 82.8677,180.453 78.5,183.5C 77.914,183.291 77.414,182.957 77,182.5C 76.1354,184.225 75.4687,185.892 75,187.5C 73.8869,186.289 72.7202,186.289 71.5,187.5C 70.2888,188.274 70.2888,189.107 71.5,190C 67.5941,194.737 62.9275,198.571 57.5,201.5C 58.8522,196.746 60.1855,192.079 61.5,187.5C 61.369,188.239 61.5357,188.906 62,189.5C 64.9216,186.711 67.5883,183.711 70,180.5C 70.3333,180.833 70.6667,181.167 71,181.5C 72.8653,179.217 75.032,177.384 77.5,176C 78.7383,175.31 78.7383,174.81 77.5,174.5C 81.7227,173.098 86.0561,172.765 90.5,173.5 Z"/></g>
<g><path style="opacity:0.979" fill="#a950ff" d="M 101.5,173.5 C 98.6121,173.995 96.2788,175.495 94.5,178C 95.8333,178.667 95.8333,179.333 94.5,180C 96.2556,180.202 97.9223,180.702 99.5,181.5C 98.7376,181.911 97.7376,182.077 96.5,182C 96.9574,182.414 97.2907,182.914 97.5,183.5C 92.2792,184.624 92.2792,185.458 97.5,186C 94.5456,186.299 91.7123,187.132 89,188.5C 87.0232,188.342 84.8566,188.175 82.5,188C 83.8333,188.667 83.8333,189.333 82.5,190C 83.7588,190.923 85.0921,191.757 86.5,192.5C 86.3333,192.833 86.1667,193.167 86,193.5C 76.0091,202.147 64.8424,211.814 52.5,222.5C 53.7849,215.409 55.4516,208.409 57.5,201.5C 62.9275,198.571 67.5941,194.737 71.5,190C 70.2888,189.107 70.2888,188.274 71.5,187.5C 72.7202,186.289 73.8869,186.289 75,187.5C 75.4687,185.892 76.1354,184.225 77,182.5C 77.414,182.957 77.914,183.291 78.5,183.5C 82.8677,180.453 86.8677,177.12 90.5,173.5C 94.0326,172.285 97.6992,172.285 101.5,173.5 Z"/></g>
<g><path style="opacity:0.988" fill="#9847ff" d="M 118.5,173.5 C 121.5,173.5 124.5,173.5 127.5,173.5C 130.187,173.336 132.854,173.503 135.5,174C 134.5,174.333 133.5,174.667 132.5,175C 131.075,176.362 130.242,177.862 130,179.5C 129.667,179.167 129.333,178.833 129,178.5C 124.989,182.511 120.989,186.511 117,190.5C 114.885,191.379 112.551,191.379 110,190.5C 109.517,191.448 109.351,192.448 109.5,193.5C 108.127,193.343 106.793,193.51 105.5,194C 106,194.5 106.5,195 107,195.5C 107.986,194.829 109.153,194.829 110.5,195.5C 108.948,198.112 106.614,199.445 103.5,199.5C 103.649,200.552 103.483,201.552 103,202.5C 99.7983,203.934 96.6316,206.101 93.5,209C 93.8333,209.333 94.1667,209.667 94.5,210C 92.0558,210.804 90.2225,212.304 89,214.5C 88.6667,214.167 88.3333,213.833 88,213.5C 86.117,214.653 85.2837,216.319 85.5,218.5C 83.0885,218.137 81.5885,219.137 81,221.5C 80.6667,221.167 80.3333,220.833 80,220.5C 79.6667,221.5 79.3333,222.5 79,223.5C 78.6667,223.167 78.3333,222.833 78,222.5C 76.6667,224.167 75.3333,225.833 74,227.5C 73.6667,227.167 73.3333,226.833 73,226.5C 64.5812,233.953 57.2479,240.953 51,247.5C 49.4345,246.939 48.1011,247.606 47,249.5C 46.7216,248.584 46.2216,247.918 45.5,247.5C 47.4252,242.165 49.0919,236.832 50.5,231.5C 51.2161,231.783 52.0494,232.116 53,232.5C 54.7986,229.368 57.2986,226.868 60.5,225C 60.1667,224.667 59.8333,224.333 59.5,224C 78.6915,208.798 98.3581,191.965 118.5,173.5 Z"/></g>
<g><path style="opacity:0.954" fill="#5721ff" d="M 233.5,191.5 C 236.1,193.244 235.934,194.577 233,195.5C 232.581,199.852 231.914,200.185 231,196.5C 229.981,197.687 228.814,198.687 227.5,199.5C 226.808,198.975 226.308,198.308 226,197.5C 224.954,200.35 224.287,203.017 224,205.5C 223.727,203.899 223.227,202.399 222.5,201C 223.308,200.692 223.975,200.192 224.5,199.5C 223.965,197.899 222.965,197.399 221.5,198C 222.458,199.147 222.125,200.147 220.5,201C 221.861,202.584 222.528,204.418 222.5,206.5C 221.448,206.351 220.448,206.517 219.5,207C 223.185,207.914 222.852,208.581 218.5,209C 219.672,209.419 220.672,210.085 221.5,211C 219.837,211.265 218.337,210.765 217,209.5C 214.263,210.56 211.43,211.394 208.5,212C 210.81,212.497 213.143,212.663 215.5,212.5C 215.649,213.552 215.483,214.552 215,215.5C 213.442,214.655 212.442,215.321 212,217.5C 211.309,215.109 210.309,215.109 209,217.5C 206.871,216.137 206.371,216.471 207.5,218.5C 206.388,219.265 205.721,220.265 205.5,221.5C 201.062,220.723 196.728,220.389 192.5,220.5C 192.881,219.069 193.881,218.236 195.5,218C 194.376,217.751 193.376,217.251 192.5,216.5C 192.667,216.167 192.833,215.833 193,215.5C 195.089,215.745 197.089,215.745 199,215.5C 200.154,214.257 201.488,213.257 203,212.5C 204.368,211.007 204.535,209.507 203.5,208C 204.744,207.544 205.577,208.044 206,209.5C 207.637,207.19 209.804,205.69 212.5,205C 211.66,203.334 212.16,203.167 214,204.5C 214.309,203.234 214.809,202.067 215.5,201C 214.833,200.667 214.167,200.333 213.5,200C 215.66,196.916 216.994,196.75 217.5,199.5C 220.708,197.793 223.041,195.293 224.5,192C 223.427,190.584 223.427,189.25 224.5,188C 227.702,186.078 228.035,186.411 225.5,189C 226.167,189.667 226.833,190.333 227.5,191C 225.405,191.556 225.238,192.056 227,192.5C 229.001,191.277 229.835,189.777 229.5,188C 230.448,187.517 231.448,187.351 232.5,187.5C 232.67,188.822 232.337,189.989 231.5,191C 232.094,191.464 232.761,191.631 233.5,191.5 Z"/></g>
<g><path style="opacity:0.88" fill="#7e38ff" d="M 176.5,170.5 C 175.737,171.268 174.737,171.768 173.5,172C 174.624,172.249 175.624,172.749 176.5,173.5C 175.15,174.95 173.484,175.617 171.5,175.5C 170.234,178.301 169.401,181.301 169,184.5C 168.457,179.604 167.124,179.604 165,184.5C 164.667,184.167 164.333,183.833 164,183.5C 163.626,184.416 163.126,185.25 162.5,186C 163.345,187.558 162.679,188.558 160.5,189C 160.833,189.333 161.167,189.667 161.5,190C 159.892,190.658 158.725,190.158 158,188.5C 157.072,191.035 155.238,192.035 152.5,191.5C 152.657,192.873 152.49,194.207 152,195.5C 151.61,191.834 150.443,191.668 148.5,195C 148.835,196.503 148.835,197.836 148.5,199C 147.167,199.333 145.833,199.667 144.5,200C 149.716,202.31 149.716,203.143 144.5,202.5C 143.185,204.316 141.685,205.983 140,207.5C 138.667,206.833 137.333,206.167 136,205.5C 135.544,206.744 136.044,207.577 137.5,208C 134.956,209.563 134.956,211.063 137.5,212.5C 136.174,212.205 134.841,212.705 133.5,214C 134.167,214.333 134.833,214.667 135.5,215C 132.692,215.598 130.192,216.765 128,218.5C 126.442,217.655 125.442,218.321 125,220.5C 124.692,219.692 124.192,219.025 123.5,218.5C 121.487,219.969 119.82,221.636 118.5,223.5C 116.5,223.5 114.5,223.5 112.5,223.5C 115.409,217.428 120.075,213.261 126.5,211C 125.833,210.333 125.167,209.667 124.5,209C 126.251,207.451 127.917,206.618 129.5,206.5C 128.5,205.667 127.5,204.833 126.5,204C 129.43,202.341 132.43,202.008 135.5,203C 135.167,202.667 134.833,202.333 134.5,202C 135.993,200.632 137.493,200.465 139,201.5C 140.118,199.235 140.951,196.901 141.5,194.5C 142.552,194.649 143.552,194.483 144.5,194C 145.833,193.333 145.833,192.667 144.5,192C 146.931,191.705 148.764,190.538 150,188.5C 150.333,188.833 150.667,189.167 151,189.5C 152.115,187.092 153.782,185.092 156,183.5C 156.333,183.833 156.667,184.167 157,184.5C 160.792,180.047 164.625,175.713 168.5,171.5C 170.952,171.613 173.618,171.28 176.5,170.5 Z"/></g>
<g><path style="opacity:0.992" fill="#9143ff" d="M 110.5,195.5 C 110.561,197.439 110.561,199.439 110.5,201.5C 108.5,202.333 106.5,203.167 104.5,204C 105.167,204.333 105.833,204.667 106.5,205C 86.6162,222.188 65.2829,240.688 42.5,260.5C 42.7725,255.938 43.7725,251.604 45.5,247.5C 46.2216,247.918 46.7216,248.584 47,249.5C 48.1011,247.606 49.4345,246.939 51,247.5C 57.2479,240.953 64.5812,233.953 73,226.5C 73.3333,226.833 73.6667,227.167 74,227.5C 75.3333,225.833 76.6667,224.167 78,222.5C 78.3333,222.833 78.6667,223.167 79,223.5C 79.3333,222.5 79.6667,221.5 80,220.5C 80.3333,220.833 80.6667,221.167 81,221.5C 81.5885,219.137 83.0885,218.137 85.5,218.5C 85.2837,216.319 86.117,214.653 88,213.5C 88.3333,213.833 88.6667,214.167 89,214.5C 90.2225,212.304 92.0558,210.804 94.5,210C 94.1667,209.667 93.8333,209.333 93.5,209C 96.6316,206.101 99.7983,203.934 103,202.5C 103.483,201.552 103.649,200.552 103.5,199.5C 106.614,199.445 108.948,198.112 110.5,195.5 Z"/></g>
<g><path style="opacity:0.051" fill="#9c4aff" d="M 294.5,206.5 C 295.833,207.167 295.833,207.167 294.5,206.5 Z"/></g>
<g><path style="opacity:0.051" fill="#9c4aff" d="M 315.5,210.5 C 316.833,211.167 316.833,211.167 315.5,210.5 Z"/></g>
<g><path style="opacity:0.051" fill="#9c4aff" d="M 36.5,217.5 C 37.8333,218.167 37.8333,218.167 36.5,217.5 Z"/></g>
<g><path style="opacity:0.157" fill="#7b36ff" d="M 284.5,220.5 C 285.833,221.167 285.833,221.167 284.5,220.5 Z"/></g>
<g><path style="opacity:0.051" fill="#9c4aff" d="M 203.5,224.5 C 204.833,225.167 204.833,225.167 203.5,224.5 Z"/></g>
<g><path style="opacity:0.157" fill="#7331ff" d="M 152.5,226.5 C 152.897,225.475 153.563,225.308 154.5,226C 153.906,226.464 153.239,226.631 152.5,226.5 Z"/></g>
<g><path style="opacity:0.051" fill="#9c4aff" d="M 23.5,227.5 C 24.8333,228.167 24.8333,228.167 23.5,227.5 Z"/></g>
<g><path style="opacity:0.231" fill="#7b37ff" d="M 92.5,235.5 C 93.8333,236.167 93.8333,236.167 92.5,235.5 Z"/></g>
<g><path style="opacity:0.157" fill="#7b36ff" d="M 95.5,244.5 C 96.8333,245.167 96.8333,245.167 95.5,244.5 Z"/></g>
<g><path style="opacity:0.525" fill="#6529ff" d="M 111.5,246.5 C 111.897,245.475 112.563,245.308 113.5,246C 112.906,246.464 112.239,246.631 111.5,246.5 Z"/></g>
<g><path style="opacity:0.051" fill="#9c4aff" d="M 77.5,254.5 C 78.8333,255.167 78.8333,255.167 77.5,254.5 Z"/></g>
<g><path style="opacity:0.051" fill="#9c4aff" d="M 57.5,262.5 C 58.8333,263.167 58.8333,263.167 57.5,262.5 Z"/></g>
<g><path style="opacity:0.051" fill="#9c4aff" d="M 38.5,264.5 C 37.8333,265.167 37.8333,265.167 38.5,264.5 Z"/></g>
<g><path style="opacity:0.051" fill="#9c4aff" d="M 34.5,271.5 C 35.8333,272.167 35.8333,272.167 34.5,271.5 Z"/></g>
<g><path style="opacity:0.051" fill="#9c4aff" d="M 44.5,276.5 C 45.8333,277.167 45.8333,277.167 44.5,276.5 Z"/></g>
</svg>
